<svg width="100" height="100" viewBox="0 0 100 100" fill="none" xmlns="http://www.w3.org/2000/svg">
<g id="mail">
<circle id="Letter-Inner" cx="50" cy="50" r="49" fill="#CF6868"/>
<path id="letter" d="M50 1C22.94 1 1 22.94 1 50C1 77.06 22.94 99 50 99C77.06 99 99 77.06 99 50C99 22.94 77.06 1 50 1ZM18.22 25.51H82.09C82.52 25.51 82.92 25.59 83.31 25.71L59.54 46.05L56.39 48.62L50.16 53.69L43.94 48.63L40.78 46.06L16.99 25.71C17.38 25.59 17.79 25.51 18.22 25.51ZM14.12 71.53C13.97 71.09 13.87 70.63 13.87 70.14V29.85C13.87 29.39 13.96 28.95 14.1 28.53L37.78 48.81L14.12 71.53ZM82.09 74.49H18.22C17.81 74.49 17.42 74.41 17.05 74.31L40.94 51.38L50.16 58.88L59.39 51.37L83.27 74.31C82.89 74.42 82.5 74.49 82.09 74.49ZM86.19 71.53L62.54 48.8L86.21 28.53C86.35 28.95 86.44 29.39 86.44 29.85V70.14C86.43 70.63 86.34 71.09 86.19 71.53Z" fill="#BDC3C7"/>
</g>
</svg>
