<svg width="100" height="100" viewBox="0 0 100 100" fill="none" xmlns="http://www.w3.org/2000/svg">
<g id="code">
<circle id="Inner" cx="50" cy="50" r="49" fill="#CF6868"/>
<path id="Fill 5" fill-rule="evenodd" clip-rule="evenodd" d="M84.8516 54.6609L84.5938 54.9187L67.9828 65.1594C67.2775 65.5943 66.4283 65.7312 65.622 65.54C64.8158 65.3488 64.1185 64.8452 63.6836 64.1398C63.2487 63.4345 63.1118 62.5853 63.303 61.7791C63.4942 60.9728 63.9978 60.2755 64.7031 59.8406L80.5203 50.0891C80.536 50.0307 80.536 49.9693 80.5203 49.9109L64.7031 40.1594C64.3447 39.9485 64.0319 39.6683 63.7831 39.335C63.5343 39.0017 63.3546 38.6222 63.2544 38.2185C63.1542 37.8149 63.1356 37.3953 63.1997 36.9844C63.2637 36.5735 63.4092 36.1795 63.6274 35.8255C63.8457 35.4715 64.1325 35.1647 64.4709 34.9229C64.8092 34.6812 65.1925 34.5094 65.5981 34.4177C66.0038 34.326 66.4236 34.3161 66.8331 34.3888C67.2426 34.4614 67.6335 34.615 67.9828 34.8406L84.5938 45.0812L84.8516 45.3391C86.0853 46.5765 86.7781 48.2526 86.7781 50C86.7781 51.7474 86.0853 53.4235 84.8516 54.6609ZM42.7625 77.6781C42.6201 78.0669 42.4018 78.4235 42.1204 78.7272C41.839 79.031 41.5 79.2757 41.1232 79.4473C40.7464 79.6189 40.3392 79.7139 39.9253 79.7268C39.5115 79.7396 39.0992 79.6701 38.7124 79.5223C38.3257 79.3745 37.9721 79.1512 37.6724 78.8656C37.3726 78.58 37.1326 78.2376 36.9663 77.8584C36.8 77.4792 36.7107 77.0708 36.7036 76.6568C36.6965 76.2428 36.7718 75.8315 36.925 75.4469L57.2375 22.3219C57.3799 21.9331 57.5982 21.5765 57.8796 21.2728C58.161 20.969 58.5 20.7243 58.8768 20.5527C59.2536 20.3811 59.6608 20.2861 60.0747 20.2732C60.4885 20.2604 60.9008 20.3299 61.2876 20.4777C61.6743 20.6255 62.0279 20.8488 62.3276 21.1344C62.6274 21.42 62.8674 21.7624 63.0337 22.1416C63.2 22.5208 63.2893 22.9292 63.2964 23.3432C63.3035 23.7572 63.2282 24.1685 63.075 24.5531L42.7625 77.6781ZM33.6547 65.625C33.0953 65.625 32.5281 65.475 32.0172 65.1594L15.4062 54.9187L15.1484 54.6609C13.9147 53.4235 13.2219 51.7474 13.2219 50C13.2219 48.2526 13.9147 46.5765 15.1484 45.3391L15.4062 45.0812L32.0172 34.8406C32.7225 34.4057 33.5717 34.2688 34.3779 34.46C35.1842 34.6512 35.8815 35.1548 36.3164 35.8602C36.7513 36.5655 36.8882 37.4147 36.697 38.2209C36.5058 39.0272 36.0022 39.7245 35.2969 40.1594L19.4797 49.9109C19.464 49.9693 19.464 50.0307 19.4797 50.0891L35.2969 59.8406C35.8757 60.1978 36.3222 60.7341 36.5685 61.3681C36.8149 62.0021 36.8477 62.6992 36.6619 63.3535C36.4762 64.0078 36.082 64.5836 35.5393 64.9936C34.9965 65.4035 34.3349 65.6252 33.6547 65.625ZM50 0C22.3859 0 0 22.3859 0 50C0 77.6141 22.3859 100 50 100C77.6141 100 100 77.6141 100 50C100 22.3859 77.6141 0 50 0Z" fill="#BDC3C7"/>
</g>
</svg>
