<svg width="100" height="100" viewBox="0 0 100 100" fill="none" xmlns="http://www.w3.org/2000/svg">
<g id="school">
<path id="Vector" d="M81.8854 55.25V66.9583C81.8854 70 80.2187 72.8333 77.5521 74.2917L56.7187 85.6667C54.2187 87.0417 51.2187 87.0417 48.7187 85.6667L27.8854 74.2917C25.2188 72.8333 23.5521 70 23.5521 66.9583V55.25L48.7187 69C51.2187 70.375 54.2187 70.375 56.7187 69L81.8854 55.25ZM56.7187 15L91.8438 34.1667C94.7188 35.75 94.7188 39.9167 91.8438 41.5L56.7187 60.6667C54.2187 62.0417 51.2187 62.0417 48.7187 60.6667L15.2188 42.375V67C15.2188 69.2917 13.3438 71.1667 11.0521 71.1667C8.76041 71.1667 6.88541 69.2917 6.88541 67V40.2917C6.88541 38.75 7.71875 37.375 9.05208 36.625L48.7187 15C51.2187 13.6667 54.2187 13.6667 56.7187 15Z" fill="#CF6868"/>
</g>
</svg>
