<svg width="100" height="100" viewBox="0 0 100 100" fill="none" xmlns="http://www.w3.org/2000/svg">
<g id="frequency">
<circle id="circle" r="47.5" transform="matrix(-1 0 0 1 50 50)" stroke="white" stroke-width="5"/>
<path id="Vector" d="M51.1576 85.7707C51.1097 85.7707 51.0561 85.7688 51.0082 85.7688C48.9152 85.7017 47.1305 84.233 46.6594 82.1936L36.2039 36.8882L30.078 52.8127C29.3943 54.5936 27.6805 55.7694 25.7713 55.7694H9.61499C7.06621 55.7694 5 53.7032 5 51.1544C5 48.6056 7.06621 46.5394 9.61499 46.5394H22.5982L33.0021 19.4967C33.7298 17.6029 35.5892 16.4099 37.6324 16.5477C39.6565 16.6894 41.3493 18.139 41.807 20.1153L51.7378 63.1515L60.581 33.673C61.1095 31.9055 62.6453 30.6244 64.4779 30.4138C66.3028 30.2089 68.0952 31.1031 69.0067 32.7079L76.9096 46.5375H90.385C92.9338 46.5375 95 48.6037 95 51.1525C95 53.7013 92.9338 55.7675 90.385 55.7675H74.2306C72.5742 55.7675 71.0403 54.8809 70.2207 53.4428L66.3277 46.6275L55.5734 82.4789C54.9874 84.436 53.1874 85.7707 51.1576 85.7707Z" fill="#CF6868"/>
</g>
</svg>
