<svg width="100" height="100" viewBox="0 0 100 100" fill="none" xmlns="http://www.w3.org/2000/svg">
<g id="knowledge">
<g id="Inner">
<path id="Vector" d="M86 54.248H22C21.4696 54.248 20.9609 54.4588 20.5858 54.8338C20.2107 55.2089 20 55.7176 20 56.248V66.248H14C13.4696 66.248 12.9609 66.4588 12.5858 66.8338C12.2107 67.2089 12 67.7176 12 68.248V80.248C12 80.7785 12.2107 81.2872 12.5858 81.6623C12.9609 82.0373 13.4696 82.248 14 82.248H78C78.5304 82.248 79.0391 82.0373 79.4142 81.6623C79.7893 81.2872 80 80.7785 80 80.248V70.248H86C86.5304 70.248 87.0391 70.0373 87.4142 69.6623C87.7893 69.2872 88 68.7785 88 68.248V56.248C88 55.7176 87.7893 55.2089 87.4142 54.8338C87.0391 54.4588 86.5304 54.248 86 54.248ZM76 78.248H16V70.248H76V78.248ZM84 66.248H24V58.248H84V66.248Z" fill="#CF6868"/>
<path id="Vector_2" d="M36 58.248H32V66.248H36V58.248Z" fill="white"/>
<path id="Vector_3" d="M76 58.248H72V66.248H76V58.248Z" fill="white"/>
<path id="Vector_4" d="M28 70.248H24V78.248H28V70.248Z" fill="white"/>
<path id="Vector_5" d="M68 70.248H64V78.248H68V70.248Z" fill="white"/>
<path id="Vector_6" d="M68.8399 19.648C66.2489 17.6214 63.0867 16.4601 59.7999 16.328C56.9111 16.3245 54.0809 17.1431 51.6399 18.688C51.1999 18.968 50.7599 19.248 50.3999 19.528C49.7334 20.0268 49.1172 20.5895 48.5599 21.208L48.3999 21.368L47.9599 21.808C47.9127 20.4008 47.6979 19.0043 47.3199 17.648C47.0278 17.4939 46.7192 17.3731 46.3999 17.288C43.9599 16.488 35.5599 14.728 28.3599 24.728C26.4434 27.6335 25.3986 31.0268 25.349 34.5071C25.2994 37.9874 26.247 41.4091 28.0799 44.368C30.0313 48.1475 32.7091 51.5049 35.9599 54.248H67.0799C68.5817 52.6518 69.8235 50.8296 70.7599 48.848C78.9199 31.968 74.1999 23.688 68.8399 19.648ZM67.1599 47.088C64.1999 53.168 60.8799 53.928 58.3199 53.928C57.4281 53.915 56.5478 53.7243 55.7306 53.3672C54.9133 53.01 54.1754 52.4936 53.5599 51.848L53.5199 51.808C53.4345 51.682 53.3259 51.5734 53.1999 51.488C53.0721 51.3992 52.9384 51.3191 52.7999 51.248C52.5633 51.134 52.3025 51.0791 52.0399 51.088C51.7807 51.069 51.5207 51.11 51.2799 51.208C51.0465 51.2881 50.8296 51.4101 50.6399 51.568C49.0386 53.0217 47.0265 53.9439 44.8799 54.208C41.4399 54.208 35.1199 49.408 31.6399 42.568C30.2032 40.2347 29.4424 37.5482 29.4424 34.808C29.4424 32.0678 30.2032 29.3814 31.6399 27.048C32.7795 25.0373 34.4485 23.3775 36.4655 22.2491C38.4824 21.1208 40.7702 20.567 43.0799 20.648C44.6954 20.8008 46.2481 21.3504 47.5999 22.248L47.0399 22.808C46.8598 22.9963 46.7188 23.2185 46.6252 23.4617C46.5316 23.7049 46.4873 23.9643 46.4947 24.2247C46.5022 24.4852 46.5613 24.7416 46.6686 24.9791C46.7759 25.2165 46.9293 25.4303 47.1199 25.608C47.3031 25.7952 47.5224 25.9432 47.7646 26.0431C48.0067 26.1429 48.2666 26.1924 48.5285 26.1887C48.7904 26.185 49.0488 26.128 49.288 26.0213C49.5272 25.9146 49.7422 25.7604 49.9199 25.568L51.3199 24.088L51.6799 23.728C53.5892 21.7671 56.1641 20.5931 58.8966 20.4376C61.629 20.2821 64.3205 21.1564 66.4399 22.888C72.5199 27.408 72.7599 35.528 67.1599 47.088Z" fill="#CF6868"/>
<path id="Vector_7" d="M59.72 7.28809C59.5027 6.89551 59.1598 6.5874 58.7462 6.41328C58.3327 6.23916 57.8726 6.20916 57.44 6.32809C55.8134 6.72709 54.2889 7.46396 52.9657 8.49079C51.6426 9.51763 50.5503 10.8114 49.76 12.2881C48.9842 10.4107 48.0474 8.60392 46.96 6.88809C46.6667 6.44966 46.2122 6.14483 45.6953 6.03995C45.1783 5.93506 44.6409 6.03863 44.2 6.32809C43.7605 6.63006 43.4561 7.09153 43.3515 7.6144C43.247 8.13727 43.3504 8.68032 43.64 9.12809C45.2947 11.7634 46.5358 14.6368 47.32 17.6481C47.6979 19.0044 47.9128 20.4009 47.96 21.8081L48.4 21.3681L48.56 21.2081C49.1172 20.5896 49.7335 20.0269 50.4 19.5281C50.76 19.2481 51.2 18.9681 51.64 18.6881C54.081 17.1432 56.9112 16.3246 59.8 16.3281C59.92 16.0881 60.04 15.8481 60.16 15.5681C60.6568 14.2312 60.874 12.8067 60.7983 11.3825C60.7226 9.9583 60.3556 8.56478 59.72 7.28809ZM56.44 14.0481C55.5811 15.817 54.0786 17.1907 52.24 17.8881C52.3106 16.4265 52.7609 15.0086 53.5465 13.7741C54.3321 12.5396 55.4259 11.5311 56.72 10.8481C56.9358 11.9195 56.8386 13.0304 56.44 14.0481Z" fill="white"/>
</g>
</g>
</svg>
