<svg width="103" height="120" viewBox="0 0 103 120" fill="none" xmlns="http://www.w3.org/2000/svg">
<g id="avatarV1">
<path id="backHair" d="M75.6788 63.9416C74.1359 61.3678 70.2886 59.6496 70.2886 57.0758C69.5205 51.9281 71.8315 45.0691 67.9775 41.6328C63.0724 36.7748 55.863 31.4992 49.6036 32.4694L49.3004 46.201L48.9972 32.5839C46.639 33.1095 44.429 34.5649 42.5626 37.3408C37.1724 45.0623 31.7821 51.0657 26.3919 57.9315C20.2336 64.7973 28.703 74.2302 27.9349 82.8074C27.9349 84.8826 27.2072 86.9511 25.9405 88.7367C36.2762 88.548 46.3964 85.4554 49.3004 84.4919C52.5749 85.5766 65.0466 89.3835 76.6423 88.6558C76.2381 87.9147 75.9012 87.1196 75.6721 86.2369C72.5996 79.3846 78.758 70.8074 75.6788 63.9416Z" fill="#CF6868"/>
<path id="sideHairRight" d="M86.8501 77.9023C87.0387 75.5239 89.4643 70.1538 89.0601 67.1959C87.9888 59.3195 83.1039 56.3548 81.5003 50.0887C80.274 45.2981 82.2886 39.6788 80.9276 35.1915C78.2729 26.4054 74.9646 21.9652 71.0365 18.6165L49.9607 16.2448L49.6036 32.4761C55.8563 31.5059 63.0724 36.7816 67.9775 41.6395C71.8248 45.0691 69.5205 51.9349 70.2886 57.0825C70.2886 59.6564 74.1359 61.3745 75.6788 63.9483C78.758 70.8141 72.5997 79.3913 75.6788 86.2504C75.9012 87.1331 76.2381 87.9281 76.6491 88.6693C78.2864 88.5682 81.7091 88.0292 83.2858 87.7193C84.1887 87.5441 82.8007 82.8748 82.8007 82.8748C83.5823 82.6457 84.9433 87.2409 85.6912 86.9444C86.621 86.5806 88.2583 85.8596 89.114 85.3745C89.114 85.3745 86.365 84.128 86.8501 77.9023Z" fill="#CF6868"/>
<path id="sideHairLeft" d="M26.3987 57.9382C31.7889 51.0724 37.1791 45.0691 42.5693 37.3476C44.4357 34.5716 46.6457 33.1162 49.0039 32.5907L48.6468 16.2515L27.571 18.6232C23.6429 21.9652 20.3346 26.4121 17.68 35.1982C16.3257 39.6856 17.8754 47.3666 16.6491 52.1639C15.0455 58.4301 10.9893 57.379 9.91802 65.2555C9.51376 68.2134 11.5351 75.5306 11.7238 77.909C12.2089 84.128 9.50702 85.3812 9.50702 85.3812C11.0163 86.2369 13.7923 87.6384 16.6558 87.8675L17.6463 82.8815C18.347 84.5323 18.3537 87.9753 18.3537 87.9753C20.301 88.1909 23.9798 88.7838 25.9607 88.7501C27.2274 86.9646 27.9551 84.8961 27.9551 82.8209C28.7097 74.2369 20.2336 64.7973 26.3987 57.9382Z" fill="#CF6868"/>
<g id="Vest">
<path id="Vector" d="M16.6625 109.206H45.3925L42.8119 70.4436C14.9242 74.5267 16.6625 108.532 16.6625 109.206Z" fill="#DB6363" stroke="#414444" stroke-miterlimit="10"/>
<path id="Vector_2" d="M48.539 70.0326C46.5042 70.0326 44.5974 70.174 42.8119 70.4368L45.3925 109.199H54.6637L57.224 70.8007C54.6232 70.3088 51.7395 70.0326 48.539 70.0326Z" fill="#414444"/>
<path id="Vector_3" d="M43.7283 70.3155C43.7283 70.3155 41.3296 79.3105 50.4526 79.3981C59.5755 79.4924 57.224 70.8074 57.224 70.8074C57.224 70.8074 51.8608 68.5502 43.7283 70.3155Z" fill="white" stroke="#414444" stroke-miterlimit="10"/>
<path id="Vector_4" d="M57.224 70.8074L54.6637 109.206H80.1729C80.1729 109.206 85.9135 76.2852 57.224 70.8074Z" fill="#DB6363" stroke="#414444" stroke-miterlimit="10"/>
<g id="jacket">
<path id="Vector_5" d="M46.3829 109.206L43.7282 70.3155L32.6378 85.0848C32.2605 85.5901 32.3077 86.2976 32.7524 86.7423L37.954 91.9641C38.3448 92.3616 38.4256 92.968 38.1426 93.4531L35.2117 98.4862C34.9624 98.9175 34.9557 99.4497 35.1982 99.881L40.3324 109.199H46.3829V109.206Z" fill="#DB6363" stroke="#414444" stroke-miterlimit="10"/>
<path id="Vector_6" d="M54.1853 109.206L56.84 70.3155L67.9304 85.0848C68.3077 85.5901 68.2605 86.2976 67.8158 86.7423L62.6143 91.9641C62.2167 92.3616 62.1426 92.968 62.4189 93.4531L65.3498 98.4862C65.5991 98.9175 65.6058 99.4497 65.3633 99.881L60.2291 109.199H54.1853V109.206Z" fill="#DB6363" stroke="#414444" stroke-miterlimit="10"/>
<path id="Vector_7" d="M26.648 109.206L27.6182 93.7833" stroke="#414444" stroke-miterlimit="10"/>
<path id="Vector_8" d="M71.562 109.206L70.5918 93.7833" stroke="#414444" stroke-miterlimit="10"/>
</g>
</g>
<g id="neck">
<path id="Vector_9" d="M43.8293 68.7591L44.2336 73.5497C44.2336 73.5497 44.9815 76.9321 50.1426 76.9321C55.9236 76.9321 56.7726 73.5497 56.7726 73.5497L56.8467 67.6002L56.8669 66.2325C53.0331 67.9102 46.8546 68.5435 43.8293 68.7591Z" fill="white" stroke="#2B3E51" stroke-miterlimit="10"/>
<path id="Vector_10" d="M56.9276 61.6575L43.3577 63.0859L43.708 67.2431L43.836 68.7659C46.8546 68.5503 53.0399 67.9236 56.8737 66.2325L56.9276 61.6575Z" fill="#1A1A1A"/>
</g>
<path id="face" d="M68.3481 25.5093C68.3481 25.5093 71.562 33.9248 71.562 46.2145C71.562 55.8024 63.9079 65.1881 52.1976 65.9495C41.1948 66.6637 29.7608 62.2369 26.3313 46.8007C22.9017 31.3644 27.7597 19.0747 41.7675 15.6452C55.7687 12.2224 65.4913 15.9349 68.3481 25.5093Z" fill="white" stroke="#2B3E51" stroke-miterlimit="10"/>
<g id="NOSE">
<path id="Vector_11" d="M50.9851 53.8219C50.9177 53.8219 50.8571 53.7882 50.8301 53.7208C50.7897 53.6333 50.8301 53.5322 50.911 53.4985C50.9245 53.4918 52.2855 52.8651 52.8852 51.6456C53.3568 50.6888 53.2086 49.2604 52.5752 48.6406C52.1912 48.27 51.6791 48.2363 51.0794 48.553C51.0592 48.5597 51.0323 48.5799 50.9918 48.6001C48.9031 49.8129 47.9598 49.2672 47.5354 48.6001C46.7605 47.3671 47.4276 37.6445 47.5084 36.5395C47.5151 36.4452 47.596 36.3778 47.6903 36.3845C47.7847 36.3913 47.852 36.4721 47.8453 36.5664C47.6297 39.5378 47.2119 47.4614 47.8183 48.4182C48.3169 49.2133 49.3276 49.1728 50.8167 48.3104C50.8638 48.2835 50.8975 48.2632 50.9177 48.2498C51.6454 47.8725 52.3192 47.9196 52.8043 48.398C53.5455 49.1189 53.7206 50.7091 53.1816 51.8006C52.5281 53.1279 51.1064 53.7815 51.0457 53.8084C51.0323 53.8219 51.0053 53.8219 50.9851 53.8219Z" fill="#020203"/>
<g id="Mouth">
<path id="Vector_12" d="M50.7373 56.9428C48.1432 56.9428 47.8468 54.7867 47.84 54.7665C47.8265 54.6721 47.8939 54.5913 47.9882 54.5778C48.0758 54.5643 48.1634 54.6317 48.1769 54.726C48.1904 54.8136 48.4868 56.8484 51.2089 56.5857C51.3032 56.5857 51.3841 56.6463 51.3976 56.7406C51.4043 56.835 51.3369 56.9158 51.2426 56.9293C51.0674 56.936 50.899 56.9428 50.7373 56.9428Z" fill="#020203"/>
</g>
</g>
<g id="HAIR">
<path id="Vector_13" d="M45.8372 13.6912C45.8372 13.6912 14.1426 9.23078 21.4127 45.4127C21.4127 45.4127 23.1443 43.297 27.3554 43.6541C31.5733 44.0112 47.2656 30.6906 47.7574 26.0618C47.7574 26.0618 60.849 43.6137 71.562 43.6137C73.8192 43.6137 76.1235 44.685 76.6019 45.4194C77.0803 46.1539 82.5985 29.68 73.9203 20.5098C63.2678 9.23078 52.3257 11.2993 45.8372 13.6912Z" fill="#CF6868"/>
<path id="Vector_14" d="M14.0415 85.9607C13.2061 83.5553 12.3706 81.1432 11.5351 78.7378C10.5109 75.7934 9.48007 72.822 9.04885 69.7092C8.61763 66.603 8.81976 63.3083 10.1673 60.4784C11.8585 56.9276 15.2072 54.3739 16.5413 50.6682C18.2122 46.0393 16.3526 40.9388 16.3998 36.0067C16.4672 28.8175 20.0651 18.6367 32.53 15.5306C39.2139 13.8664 41.7675 18.4615 46.3829 23.7372" stroke="#CF6868" stroke-width="0.5841" stroke-miterlimit="10"/>
<path id="Vector_15" d="M55.5733 13.7316C62.3043 11.8046 69.8439 13.8866 74.9916 19.0882C80.1392 24.2897 82.7266 32.4492 81.662 40.0966C81.3857 42.0708 80.8871 44.0449 81.096 46.0258C81.7631 52.2516 88.8647 55.479 90.0438 61.6036C90.5761 64.3594 89.7878 67.2027 88.8782 69.8237C87.9686 72.4514 86.904 75.0994 86.8636 77.9158C86.8231 80.7322 88.1168 83.8046 90.5289 84.6536" stroke="#CF6868" stroke-width="0.5841" stroke-miterlimit="10"/>
</g>
<g id="earR">
<g id="Vector_16">
<path d="M69.251 44.1258C69.251 44.1258 77.5048 41.1274 77.9293 49.5901C78.2796 56.4627 72.256 57.8102 68.5705 55.297" fill="white"/>
<path d="M69.251 44.1258C69.251 44.1258 77.5048 41.1274 77.9293 49.5901C78.2796 56.4627 72.256 57.8102 68.5705 55.297" stroke="#414444" stroke-miterlimit="10"/>
</g>
<path id="Vector_17" d="M73.7518 50.2976C73.8057 50.2976 73.8529 50.2774 73.8866 50.2302C73.9405 50.1561 73.927 50.0483 73.8529 49.9944C73.8259 49.9742 70.9759 47.8922 68.8669 50.0078C68.7995 50.0752 68.7995 50.183 68.8669 50.2504C68.9343 50.3178 69.0421 50.3178 69.1095 50.2504C71.0163 48.3436 73.6305 50.2504 73.6575 50.2639C73.6844 50.2841 73.7181 50.2976 73.7518 50.2976Z" fill="#020203"/>
<path id="Vector_18" d="M69.5744 53.6193C69.5946 53.6193 69.6216 53.6126 69.6418 53.6058C69.7294 53.5654 69.7631 53.4643 69.7226 53.3835C69.7024 53.3431 67.8967 49.2734 70.7333 47.3801C71.7305 46.7131 72.7142 46.484 73.6575 46.6861C75.288 47.0432 76.2718 48.5997 76.2785 48.6131C76.3257 48.694 76.4335 48.7142 76.5143 48.667C76.5952 48.6199 76.6154 48.5121 76.5682 48.4312C76.5278 48.3638 75.5037 46.74 73.7316 46.3492C72.694 46.1269 71.6227 46.3695 70.5446 47.0904C67.4655 49.1454 69.3925 53.4778 69.4127 53.5182C69.4464 53.5789 69.5138 53.6193 69.5744 53.6193Z" fill="#020203"/>
</g>
<g id="earL">
<g id="Vector_19">
<path d="M28.7636 44.1258C28.7636 44.1258 20.5098 41.1274 20.0853 49.5901C19.7282 56.685 26.3043 57.8978 29.9629 55.0342" fill="white"/>
<path d="M28.7636 44.1258C28.7636 44.1258 20.5098 41.1274 20.0853 49.5901C19.7282 56.685 26.3043 57.8978 29.9629 55.0342" stroke="#414444" stroke-miterlimit="10"/>
</g>
<path id="Vector_20" d="M24.2628 50.2976C24.2089 50.2976 24.1617 50.2774 24.128 50.2302C24.0741 50.1561 24.0876 50.0483 24.1617 49.9944C24.1887 49.9742 27.0387 47.8922 29.1477 50.0078C29.215 50.0752 29.215 50.183 29.1477 50.2504C29.0803 50.3178 28.9725 50.3178 28.9051 50.2504C26.9983 48.3436 24.384 50.2504 24.3571 50.2639C24.3301 50.2841 24.2965 50.2976 24.2628 50.2976Z" fill="#020203"/>
<path id="Vector_21" d="M28.4402 53.6193C28.42 53.6193 28.393 53.6126 28.3728 53.6058C28.2852 53.5654 28.2515 53.4643 28.292 53.3835C28.3122 53.3431 30.1179 49.2734 27.2813 47.3801C26.2841 46.7131 25.3004 46.484 24.3571 46.6861C22.7266 47.0432 21.7428 48.5997 21.7361 48.6131C21.6889 48.694 21.5811 48.7142 21.5003 48.667C21.4194 48.6199 21.3992 48.5121 21.4464 48.4312C21.4868 48.3638 22.5109 46.74 24.283 46.3492C25.3206 46.1269 26.3919 46.3695 27.47 47.0904C30.5491 49.1454 28.6221 53.4778 28.6019 53.5182C28.5682 53.5789 28.5076 53.6193 28.4402 53.6193Z" fill="#020203"/>
</g>
<g id="EARRINGS">
<path id="Vector_22" d="M26.8703 54.5895C27.6047 53.8551 28.7906 53.8551 29.525 54.5895C30.2594 55.324 30.2594 56.5098 29.525 57.2442C28.7906 57.9787 27.6047 57.9787 26.8703 57.2442C26.1359 56.5166 26.1359 55.324 26.8703 54.5895Z" fill="#414444"/>
<path id="Vector_23" d="M69.123 54.5895C69.8574 53.8551 71.0432 53.8551 71.7777 54.5895C72.5121 55.324 72.5121 56.5098 71.7777 57.2442C71.0432 57.9787 69.8574 57.9787 69.123 57.2442C68.3953 56.5166 68.3953 55.324 69.123 54.5895Z" fill="#414444"/>
</g>
<g id="glasses">
<g id="Group">
<path id="Vector_24" d="M53.1005 46.0258C52.8781 40.9994 56.7861 36.7277 61.8057 36.5053C66.8321 36.283 71.1039 40.1909 71.3262 45.2106C71.5486 50.237 67.6406 54.5087 62.621 54.7311C57.6013 54.9601 53.3296 51.0522 53.1005 46.0258ZM53.5856 46.0056C53.7945 50.7625 57.8439 54.4615 62.6008 54.2527C67.3577 54.0438 71.0567 49.9944 70.8478 45.2375C70.639 40.4806 66.5895 36.7816 61.8327 36.9905C57.0758 37.2061 53.3767 41.2487 53.5856 46.0056Z" fill="#1A1A1A"/>
</g>
<g id="Group_2">
<path id="Vector_25" d="M28.1909 47.1376C27.9686 42.1112 31.8765 37.8394 36.8961 37.6171C41.9225 37.3947 46.1943 41.3026 46.4166 46.3223C46.639 51.3487 42.731 55.6204 37.7114 55.8428C32.685 56.0719 28.4132 52.164 28.1909 47.1376ZM28.6693 47.1174C28.8782 51.8742 32.9276 55.5733 37.6844 55.3644C42.4413 55.1555 46.1404 51.1061 45.9315 46.3492C45.7226 41.5924 41.6732 37.8933 36.9163 38.1022C32.1595 38.3178 28.4604 42.3605 28.6693 47.1174Z" fill="#1A1A1A"/>
</g>
<g id="Group_3">
<path id="Vector_26" d="M46.1269 45.3116C46.1673 45.3116 46.2077 45.2982 46.2482 45.2712C49.6238 43.0882 53.2285 44.9411 53.2689 44.9613C53.3902 45.0219 53.5317 44.9747 53.5991 44.8602C53.6597 44.7389 53.6193 44.5974 53.498 44.53C53.4576 44.5098 49.6036 42.5289 45.9921 44.8669C45.8776 44.941 45.8506 45.0893 45.918 45.2038C45.9584 45.2779 46.046 45.3116 46.1269 45.3116Z" fill="#1A1A1A"/>
</g>
</g>
<g id="Eyes">
<path id="Vector_27" d="M35.2117 40.575C35.2117 40.575 33.5205 39.0724 37.0915 37.1993C40.6625 35.3262 41.9158 35.7372 42.4952 36.6738C43.0208 37.5295 42.2055 38.8097 40.1774 39.8271C37.7518 41.0399 36.128 41.4374 35.2117 40.575Z" fill="#414444"/>
<path id="Vector_28" d="M64.3661 40.575C64.3661 40.575 66.0573 39.0724 62.4862 37.1993C58.9152 35.3262 57.662 35.7372 57.0825 36.6738C56.557 37.5295 57.3723 38.8097 59.4003 39.8271C61.8327 41.0399 63.4498 41.4374 64.3661 40.575Z" fill="#414444"/>
<path id="Vector_29" d="M42.0573 46.3021C42.0573 47.4542 41.2892 48.3908 40.3391 48.3908C39.3891 48.3908 38.621 47.4542 38.621 46.3021C38.621 45.1499 39.3891 44.2134 40.3391 44.2134C41.2892 44.2066 42.0573 45.1432 42.0573 46.3021Z" fill="#414444"/>
<path id="Vector_30" d="M56.7726 46.3021C56.7726 47.4542 57.5407 48.3908 58.4907 48.3908C59.4408 48.3908 60.2089 47.4542 60.2089 46.3021C60.2089 45.1499 59.4408 44.2134 58.4907 44.2134C57.5407 44.2066 56.7726 45.1432 56.7726 46.3021Z" fill="#414444"/>
</g>
</g>
</svg>
