<svg width="100" height="100" viewBox="0 0 100 100" fill="none" xmlns="http://www.w3.org/2000/svg">
<g id="world">
<circle id="Inner" cx="50.5" cy="50.5" r="48.5" fill="#CF6868"/>
<path id="Vector" d="M50 0C22.3858 0 0 22.3858 0 50C0 77.6142 22.3858 100 50 100C77.6142 100 100 77.6142 100 50C100 22.3858 77.6142 0 50 0ZM45.1923 25.4808C45.558 25.4808 45.9082 25.6827 46.274 25.7212C47.9935 26.6569 49.9275 28.9562 51.3221 32.4519C48.8661 32.9054 46.3003 33.2108 43.6298 33.1731C41.3694 33.1346 39.2219 32.835 37.1394 32.4519C38.4673 29.1058 40.219 26.7117 41.8269 25.601C42.9595 25.474 44.0432 25.4231 45.1923 25.4808ZM35.2163 27.524C34.5345 28.7256 33.9555 29.9506 33.4135 31.3702C33.3927 31.424 33.3139 31.5567 33.2933 31.6106C32.3182 31.3144 31.3977 31.0198 30.5288 30.649C31.9821 29.409 33.5167 28.319 35.2163 27.524ZM53.2452 27.6442C54.9508 28.4508 56.4229 29.3477 57.8125 30.5288C56.9405 30.9019 56.026 31.3106 55.0481 31.6106C55.0215 31.5413 55.0748 31.4394 55.0481 31.3702C54.5198 30.0006 53.9162 28.8027 53.2452 27.6442ZM60.6971 33.4135C63.2457 36.6135 64.7658 40.5708 65.1442 44.7115H57.5721C57.4415 41.3504 57.0008 38.1279 56.25 35.2163C57.8442 34.7229 59.3051 34.1088 60.6971 33.4135ZM27.7644 33.5337C29.1495 34.2225 30.6222 34.8477 32.2115 35.3365C31.4484 38.2642 30.9051 41.3831 30.7692 44.7115H23.0769C23.4017 41.1377 24.6292 37.6029 26.8029 34.4952C27.0645 34.1221 27.4829 33.8863 27.7644 33.5337ZM35.9375 36.1779C38.3907 36.6567 40.8575 36.9819 43.5096 37.0192C46.6053 37.0615 49.6654 36.7387 52.524 36.1779C53.1878 38.7598 53.5951 41.6662 53.726 44.7115H34.6154C34.7515 41.6919 35.2552 38.7913 35.9375 36.1779ZM23.1971 48.5577H30.7692C30.9071 51.79 31.4391 54.9854 32.2115 57.9327C30.6255 58.4258 29.0473 59.1542 27.6442 59.8558C25.0149 56.5546 23.5662 52.5746 23.1971 48.5577ZM34.6154 48.5577H53.726C53.5867 51.5585 53.0925 54.5002 52.4038 57.0913C46.9615 56.0056 41.2417 55.9231 35.9375 56.9712C35.2495 54.345 34.7543 51.4731 34.6154 48.5577ZM57.5721 48.5577H65.1442C65.1346 48.6615 65.1554 48.8144 65.1442 48.9183C61.9409 49.4325 59.1228 51.126 57.0913 53.4856C57.3275 51.9144 57.5025 50.2112 57.5721 48.5577ZM67.3077 52.524C72.6409 52.524 76.9231 56.8063 76.9231 62.1394C76.9231 66.556 73.0736 70.971 69.7115 71.5144C66.3622 72.0556 64.1458 73.3269 61.6587 74.5192C61.7956 73.8088 61.8705 73.0761 61.899 72.3558C61.916 71.9277 61.8726 71.5071 61.7788 71.0337C61.6849 70.5598 61.5569 69.8921 60.9375 69.351C58.9167 67.5867 57.6923 65.0421 57.6923 62.1394C57.6923 56.8063 61.9745 52.524 67.3077 52.524ZM44.4712 60.2163C46.7511 60.2163 49.0031 60.4323 51.2019 60.8173C49.8494 64.1469 48.1289 66.589 46.5144 67.6683C45.0678 67.826 43.6255 67.8067 42.1875 67.6683C40.505 66.8013 38.5487 64.2977 37.1394 60.8173C39.4843 60.4023 41.9815 60.209 44.4712 60.2163ZM33.2933 61.6587C33.8614 63.1587 34.5982 64.5996 35.3365 65.8654C33.6112 65.0681 32.0162 64.0104 30.5288 62.7404C31.4275 62.3596 32.2928 61.9552 33.2933 61.6587ZM53.9663 63.9423C54.0277 64.36 54.1064 64.8606 54.2067 65.2644C53.828 65.4683 53.391 65.566 53.0048 65.7452C53.3365 65.1725 53.6679 64.5696 53.9663 63.9423Z" fill="#BDC3C7"/>
</g>
</svg>
