<svg width="100" height="100" viewBox="0 0 100 100" fill="none" xmlns="http://www.w3.org/2000/svg">
<g id="computer 1">
<g id="computer">
<path id="Vector" d="M13.6719 67.3828V72.7539C13.6719 73.8281 14.5508 74.8047 15.625 74.8047H84.375C85.4492 74.8047 86.3281 73.8281 86.3281 72.7539V67.3828H13.6719Z" fill="#ECF0F1"/>
<path id="Vector_2" d="M50 72.6562C50.8629 72.6562 51.5625 71.9567 51.5625 71.0938C51.5625 70.2308 50.8629 69.5312 50 69.5312C49.1371 69.5312 48.4375 70.2308 48.4375 71.0938C48.4375 71.9567 49.1371 72.6562 50 72.6562Z" fill="#33495F"/>
<path id="Vector_3" d="M84.375 23.2422H15.625C14.5508 23.2422 13.6719 24.0234 13.6719 25.0977V67.3828H86.3281V25.0977C86.3281 24.0234 85.4492 23.2422 84.375 23.2422ZM83.2031 64.6484H16.4062V26.3672H83.2031V64.6484Z" fill="#2B3E51"/>
<path id="Vector_4" d="M83.2031 26.3672H16.4062V64.6484H83.2031V26.3672Z" fill="white" fill-opacity="0.56"/>
<path id="Vector_5" d="M33.9844 86.1328V88.0859C33.9844 88.7305 34.5115 89.2578 35.1562 89.2578H64.6484C65.293 89.2578 65.8203 88.7305 65.8203 88.0859V86.1328H33.9844Z" fill="#BDC3C7"/>
<path id="Vector_6" d="M65.918 86.1328H34.082L39.9414 80.4688H60.0586L65.918 86.1328Z" fill="#ECF0F1"/>
<path id="Vector_7" d="M59.9609 77.9297H39.8438V80.4688H59.9609V77.9297Z" fill="#BDC3C7"/>
<path id="Vector_8" d="M60.0586 77.9297H39.9414L37.9883 74.6094H62.0117L60.0586 77.9297Z" fill="#95A5A6"/>
</g>
<g id="ruler">
<path id="Vector_9" d="M68.6136 11C68.3381 11 68 11.1115 68 11.3337V36.7298V44.3212V44.6909V65H79V45.1215V43.9173V36.73V11H68.6136Z" fill="#DB6363"/>
<path id="Vector_10" d="M73.6811 12.6953C73.46 12.6953 73.2861 12.865 73.2861 13.0861C73.2861 13.307 73.4707 13.4766 73.6916 13.4766H76.7578V12.6953H73.6811Z" fill="white" fill-opacity="0.56"/>
<path id="Vector_11" d="M78.7109 12.6953H76.7578V13.4766H78.7109V12.6953Z" fill="white" fill-opacity="0.56"/>
<path id="Vector_12" d="M73.6916 22.6562C73.4707 22.6562 73.291 22.826 73.291 23.0469C73.291 23.2678 73.4707 23.4375 73.6916 23.4375H76.7578V22.6562H73.6916Z" fill="white" fill-opacity="0.56"/>
<path id="Vector_13" d="M78.7109 22.6562H76.7578V23.4375H78.7109V22.6562Z" fill="white" fill-opacity="0.56"/>
<path id="Vector_14" d="M73.6916 32.6172C73.4707 32.6172 73.291 32.7869 73.291 33.0078C73.291 33.2287 73.4703 33.3984 73.6916 33.3984H76.7578V32.6172H73.6916Z" fill="white" fill-opacity="0.56"/>
<path id="Vector_15" d="M78.7109 32.6172H76.7578V33.3984H78.7109V32.6172Z" fill="white" fill-opacity="0.56"/>
<path id="Vector_16" d="M75.2926 15.0391C75.0713 15.0391 74.892 15.3063 74.892 15.5273C74.892 15.7482 75.0713 16.0156 75.2926 16.0156H76.7578V15.0391H75.2926Z" fill="white" fill-opacity="0.56"/>
<path id="Vector_17" d="M78.7109 15.0391H76.7578V16.0156H78.7109V15.0391Z" fill="white" fill-opacity="0.56"/>
<path id="Vector_18" d="M75.2926 17.7734C75.0713 17.7734 74.892 17.8455 74.892 18.0664C74.892 18.2873 75.0713 18.3594 75.2926 18.3594H76.7578V17.7734H75.2926Z" fill="white" fill-opacity="0.56"/>
<path id="Vector_19" d="M78.7109 17.7734H76.7578V18.3594H78.7109V17.7734Z" fill="white" fill-opacity="0.56"/>
<path id="Vector_20" d="M75.2926 20.1172C75.0713 20.1172 74.892 20.2869 74.892 20.5078C74.892 20.7291 75.0713 20.8984 75.2926 20.8984H76.7578V20.1172H75.2926Z" fill="white" fill-opacity="0.56"/>
<path id="Vector_21" d="M78.7109 20.1172H76.7578V20.8984H78.7109V20.1172Z" fill="white" fill-opacity="0.56"/>
<path id="Vector_22" d="M75.2926 25.1953C75.0713 25.1953 74.892 25.3648 74.892 25.5859C74.892 25.8068 75.0713 25.9766 75.2926 25.9766H76.7578V25.1953H75.2926Z" fill="white" fill-opacity="0.56"/>
<path id="Vector_23" d="M78.7109 25.1953H76.7578V25.9766H78.7109V25.1953Z" fill="white" fill-opacity="0.56"/>
<path id="Vector_24" d="M75.2926 27.7344C75.0713 27.7344 74.892 27.9041 74.892 28.125C74.892 28.3459 75.0713 28.5156 75.2926 28.5156H76.7578V27.7344H75.2926Z" fill="white" fill-opacity="0.56"/>
<path id="Vector_25" d="M78.7109 27.7344H76.7578V28.5156H78.7109V27.7344Z" fill="white" fill-opacity="0.56"/>
<path id="Vector_26" d="M75.2926 30.2734C75.0713 30.2734 74.892 30.3451 74.892 30.5664C74.892 30.7869 75.0713 30.8594 75.2926 30.8594H76.7578V30.2734H75.2926Z" fill="white" fill-opacity="0.56"/>
<path id="Vector_27" d="M78.7109 30.2734H76.7578V30.8594H78.7109V30.2734Z" fill="white" fill-opacity="0.56"/>
<path id="Vector_28" d="M75.2926 35.1562C75.0713 35.1562 74.892 35.4234 74.892 35.6445C74.892 35.8656 75.0713 36.1328 75.2926 36.1328H76.7578V35.1562H75.2926Z" fill="white" fill-opacity="0.56"/>
<path id="Vector_29" d="M78.7109 35.1562H76.7578V36.1328H78.7109V35.1562Z" fill="white" fill-opacity="0.56"/>
<path id="Vector_30" d="M75.2926 37.6953C75.0713 37.6953 74.892 37.865 74.892 38.0859C74.892 38.3072 75.0713 38.4766 75.2926 38.4766H76.7578V37.6953H75.2926Z" fill="white" fill-opacity="0.56"/>
<path id="Vector_31" d="M78.7109 37.6953H76.7578V38.4766H78.7109V37.6953Z" fill="white" fill-opacity="0.56"/>
<path id="Vector_32" d="M75.2926 40.0391C75.0713 40.0391 74.892 40.3061 74.892 40.5277C74.892 40.7482 75.0713 41.0156 75.2926 41.0156H76.7578V40.0391H75.2926Z" fill="white" fill-opacity="0.56"/>
<path id="Vector_33" d="M78.7109 40.0391H76.7578V41.0156H78.7109V40.0391Z" fill="white" fill-opacity="0.56"/>
<path id="Vector_34" d="M73.6916 42.5781C73.4703 42.5781 73.291 42.7482 73.291 42.9695C73.291 43.1908 73.4023 43.3652 73.6236 43.3652L76.7578 43.3609V42.5781H73.6916Z" fill="white" fill-opacity="0.56"/>
<path id="Vector_35" d="M78.7109 42.5781H76.7578V43.3594H78.7109V42.5781Z" fill="white" fill-opacity="0.56"/>
<path id="Vector_36" d="M73.6811 45.3125C73.46 45.3125 73.2861 45.5797 73.2861 45.801C73.2861 46.0219 73.4707 46.2891 73.6916 46.2891H76.7578V45.3125H73.6811Z" fill="white" fill-opacity="0.56"/>
<path id="Vector_37" d="M78.7109 45.3125H76.7578V46.2891H78.7109V45.3125Z" fill="white" fill-opacity="0.56"/>
<path id="Vector_38" d="M73.6916 55.2734C73.4707 55.2734 73.291 55.4434 73.291 55.6641C73.291 55.885 73.4707 56.0547 73.6916 56.0547H76.7578V55.2734H73.6916Z" fill="white" fill-opacity="0.56"/>
<path id="Vector_39" d="M78.7109 55.2734H76.7578V56.0547H78.7109V55.2734Z" fill="white" fill-opacity="0.56"/>
<path id="Vector_40" d="M75.2926 47.8516C75.0713 47.8516 74.892 48.0213 74.892 48.2422C74.892 48.4631 75.0713 48.6328 75.2926 48.6328H76.7578V47.8516H75.2926Z" fill="white" fill-opacity="0.56"/>
<path id="Vector_41" d="M78.7109 47.8516H76.7578V48.6328H78.7109V47.8516Z" fill="white" fill-opacity="0.56"/>
<path id="Vector_42" d="M75.2926 50.3906C75.0713 50.3906 74.892 50.5604 74.892 50.7812C74.892 51.0021 75.0713 51.1719 75.2926 51.1719H76.7578V50.3906H75.2926Z" fill="white" fill-opacity="0.56"/>
<path id="Vector_43" d="M78.7109 50.3906H76.7578V51.1719H78.7109V50.3906Z" fill="white" fill-opacity="0.56"/>
<path id="Vector_44" d="M75.2926 52.9297C75.0713 52.9297 74.892 53.0014 74.892 53.2227C74.892 53.4439 75.0713 53.5156 75.2926 53.5156H76.7578V52.9297H75.2926Z" fill="white" fill-opacity="0.56"/>
<path id="Vector_45" d="M78.7109 52.9297H76.7578V53.5156H78.7109V52.9297Z" fill="white" fill-opacity="0.56"/>
<path id="Vector_46" d="M75.2926 57.8125C75.0713 57.8125 74.892 58.0797 74.892 58.3006C74.892 58.5217 75.0713 58.7891 75.2926 58.7891H76.7578V57.8125H75.2926Z" fill="white" fill-opacity="0.56"/>
<path id="Vector_47" d="M78.7109 57.8125H76.7578V58.7891H78.7109V57.8125Z" fill="white" fill-opacity="0.56"/>
<path id="Vector_48" d="M75.2926 60.3516C75.0713 60.3516 74.892 60.5213 74.892 60.7422C74.892 60.9631 75.0713 61.1328 75.2926 61.1328H76.7578V60.3516H75.2926Z" fill="white" fill-opacity="0.56"/>
<path id="Vector_49" d="M78.7109 60.3516H76.7578V61.1328H78.7109V60.3516Z" fill="white" fill-opacity="0.56"/>
<path id="Vector_50" d="M75.2926 62.8906C75.0713 62.8906 74.892 63.06 74.892 63.2812C74.892 63.5021 75.0713 63.6719 75.2926 63.6719H76.7578V62.8906H75.2926Z" fill="white" fill-opacity="0.56"/>
<path id="Vector_51" d="M78.7109 62.8906H76.7578V63.6719H78.7109V62.8906Z" fill="white" fill-opacity="0.56"/>
<path id="Vector_52" d="M78.6563 11H77V64.5156H78.9531V11.2682C78.9531 11.0869 78.8764 11 78.6563 11Z" fill="white" fill-opacity="0.56"/>
</g>
<g id="editor">
<path id="Vector_53" d="M56.4453 17.9688H20.7031V64.6484H56.4453V17.9688Z" fill="#32495D"/>
<path id="Vector_54" d="M56.4453 17.9688H20.7031V22.8516H56.4453V17.9688Z" fill="#2B3E51"/>
</g>
<g id="lines">
<g id="DarkenedLines">
<path id="Vector_55" d="M50.3906 29.8828H37.1094V31.25H50.3906V29.8828Z" fill="#2B3E51"/>
<path id="Vector_56" d="M34.375 33.2031H22.0703V34.5703H34.375V33.2031Z" fill="#2B3E51"/>
<path id="Vector_57" d="M34.375 36.9141H22.0703V38.2812H34.375V36.9141Z" fill="#2B3E51"/>
<path id="Vector_58" d="M48.4375 36.9141H36.1328V38.2812H48.4375V36.9141Z" fill="#2B3E51"/>
<path id="Vector_59" d="M29.4922 41.4062H22.0703V42.7734H29.4922V41.4062Z" fill="#2B3E51"/>
<path id="Vector_60" d="M54.8828 41.4062H47.4609V42.7734H54.8828V41.4062Z" fill="#2B3E51"/>
<path id="Vector_61" d="M42.5781 46.0938H22.0703V47.4609H42.5781V46.0938Z" fill="#2B3E51"/>
<path id="Vector_62" d="M42.5781 26.3672H22.0703V27.7344H42.5781V26.3672Z" fill="#CF6868"/>
<path id="Vector_63" d="M35.3516 29.8828H22.0703V31.25H35.3516V29.8828Z" fill="#CF6868"/>
<path id="Vector_64" d="M48.4375 33.2031H36.1328V34.5703H48.4375V33.2031Z" fill="#CF6868"/>
<path id="Vector_65" d="M37.8906 41.4062H30.4688V42.7734H37.8906V41.4062Z" fill="#CF6868"/>
<path id="Vector_66" d="M46.4844 41.4062H39.0625V42.7734H46.4844V41.4062Z" fill="#CF6868" fill-opacity="0.85"/>
<path id="Vector_67" d="M50.3906 49.6094H37.1094V50.9766H50.3906V49.6094Z" fill="#2B3E51"/>
<path id="Vector_68" d="M34.375 52.9297H22.0703V54.2969H34.375V52.9297Z" fill="#2B3E51"/>
<path id="Vector_69" d="M29.4922 61.1328H22.0703V62.5H29.4922V61.1328Z" fill="#2B3E51"/>
<path id="Vector_70" d="M37.8906 61.1328H30.4688V62.5H37.8906V61.1328Z" fill="#2B3E51"/>
<path id="Vector_71" d="M46.4844 61.1328H39.0625V62.5H46.4844V61.1328Z" fill="#2B3E51"/>
</g>
<path id="Vector_72" d="M35.3516 49.6094H22.0703V50.9766H35.3516V49.6094Z" fill="#CF6868" fill-opacity="0.85"/>
<path id="Vector_73" d="M48.4375 52.9297H36.1328V54.2969H48.4375V52.9297Z" fill="#CF6868" fill-opacity="0.85"/>
<path id="Vector_74" d="M34.375 56.6406H22.0703V58.0078H34.375V56.6406Z" fill="#CF6868" fill-opacity="0.85"/>
<path id="Vector_75" d="M48.4375 56.6406H36.1328V58.0078H48.4375V56.6406Z" fill="#CF6868" fill-opacity="0.85"/>
<path id="Vector_76" d="M54.8828 61.1328H47.4609V62.5H54.8828V61.1328Z" fill="#CF6868" fill-opacity="0.85"/>
</g>
<g id="pen">
<path id="Vector_77" d="M62.6953 34.9097V32.2265H62.7926C62.7881 32.2265 62.7881 32.2265 62.7881 32.2265C62.7881 32.2265 62.7881 32.2265 62.7926 32.2265H62.6953V32.1812C60.7422 32.1767 60.2848 31.738 60.067 31.5609C60.0115 31.516 59.9609 31.4879 59.9609 31.4879V64.6484H62.6953V34.9097Z" fill="#CF6868"/>
<path id="Vector_78" d="M65.2953 31.5879C65.083 31.7691 64.4531 32.0312 62.6953 32.0312V32.2265V34.9097V64.6484H65.4297V31.4879C65.4297 31.4879 65.351 31.5406 65.2953 31.5879Z" fill="#D64B4B"/>
<path id="Vector_79" d="M62.7785 26.4758C62.7519 26.4271 62.6617 26.4658 62.6617 26.4658C62.6266 26.4658 62.6049 26.4644 62.5885 26.4627C62.5893 26.4662 62.5893 26.4701 62.5861 26.4756L61.5719 28.3203H62.6617H63.8342L62.7785 26.4758Z" fill="#32495D"/>
<path id="Vector_80" d="M65.3828 31.2475L63.8342 28.3203H62.6617H61.5719L60.0178 31.2475C59.9797 31.3176 59.9561 31.4473 59.9832 31.5291C60.2092 31.7064 60.6357 32.1764 62.6617 32.1811C62.6617 32.1811 62.7006 32.1814 62.71 32.1814C64.452 32.1813 65.1717 31.7465 65.3916 31.5654C65.4197 31.4822 65.4217 31.3188 65.3828 31.2475Z" fill="#F4C342"/>
</g>
</g>
</svg>
