<svg width="100" height="100" viewBox="0 0 100 100" fill="none" xmlns="http://www.w3.org/2000/svg">
<g id="cogs">
<g id="cogs_2">
<path id="Vector" d="M65.1719 46.4844C64.7812 44.7969 64.1094 43.2031 63.2031 41.7656L66.7344 37.5781L62.4219 33.2656L58.2344 36.7969C56.7969 35.8906 55.2031 35.2188 53.5156 34.8281L53.0469 29.375H46.9531L46.5 34.8281C44.7969 35.2188 43.2031 35.8906 41.7812 36.7969L37.5937 33.2656L33.2969 37.5781L36.8125 41.7656C35.9062 43.2031 35.2344 44.7969 34.8437 46.4844L29.3906 46.9531V53.0469L34.8437 53.5C35.2344 55.2031 35.9062 56.7969 36.8125 58.2188L33.2969 62.4062L37.5937 66.7031L41.7812 63.1719C43.2187 64.0781 44.7969 64.75 46.5 65.1406L46.9531 70.5781H53.0469L53.5156 65.1406C55.2031 64.75 56.7969 64.0781 58.2344 63.1719L62.4219 66.7031L66.7344 62.4062L63.2031 58.2188C64.1094 56.7812 64.7812 55.2031 65.1719 53.5L70.625 53.0469V46.9531L65.1719 46.4844ZM50 57.5156C45.8438 57.5156 42.4844 54.1563 42.4844 50C42.4844 45.8594 45.8438 42.5 50 42.5C54.1406 42.5 57.5 45.8594 57.5 50C57.5 54.1563 54.1406 57.5156 50 57.5156Z" fill="#CF6868"/>
<path id="Vector_2" d="M50 17.9688C32.2969 17.9688 17.9688 32.3125 17.9688 50C17.9688 67.7031 32.2969 82.0312 50 82.0312C67.6875 82.0312 82.0312 67.7031 82.0312 50C82.0312 32.3125 67.6875 17.9688 50 17.9688ZM50 77.25C34.9375 77.25 22.75 65.0469 22.75 50C22.75 34.9531 34.9531 22.75 50 22.75C65.0469 22.75 77.25 34.9531 77.25 50C77.25 65.0469 65.0469 77.25 50 77.25Z" fill="white"/>
</g>
</g>
</svg>
