<svg width="100" height="100" viewBox="0 0 100 100" fill="none" xmlns="http://www.w3.org/2000/svg">
<g id="xp">
<path id="xP" d="M20.4711 67C19.7111 67 19.1511 66.68 18.7911 66.04C18.4311 65.4 18.4511 64.76 18.8511 64.12L26.5311 51.52C26.7311 51.24 26.7311 50.96 26.5311 50.68L19.1511 38.68C18.7511 38.04 18.7311 37.4 19.0911 36.76C19.4511 36.12 20.0111 35.8 20.7711 35.8H22.6911C23.7311 35.8 24.6911 36.08 25.5711 36.64C26.4911 37.16 27.1911 37.88 27.6711 38.8L31.7511 46.66C31.7511 46.7 31.7711 46.72 31.8111 46.72C31.8511 46.72 31.8711 46.7 31.8711 46.66L35.9511 38.8C36.4311 37.88 37.1111 37.16 37.9911 36.64C38.8711 36.08 39.8511 35.8 40.9311 35.8H42.6111C43.3711 35.8 43.9311 36.12 44.2911 36.76C44.6511 37.4 44.6311 38.04 44.2311 38.68L36.8511 50.68C36.6511 50.96 36.6511 51.24 36.8511 51.52L44.5311 64.12C44.9311 64.76 44.9511 65.4 44.5911 66.04C44.2311 66.68 43.6711 67 42.9111 67H40.9911C39.9111 67 38.9311 66.74 38.0511 66.22C37.1711 65.66 36.4911 64.92 36.0111 64L31.6311 55.6C31.6311 55.56 31.6111 55.54 31.5711 55.54C31.5311 55.54 31.5111 55.56 31.5111 55.6L27.1311 64C26.6511 64.92 25.9511 65.66 25.0311 66.22C24.1511 66.74 23.1911 67 22.1511 67H20.4711ZM59.9731 30.04V44.5C59.9731 44.78 60.1331 44.96 60.4531 45.04C61.9731 45.24 63.4531 45.34 64.8931 45.34C68.1331 45.34 70.5931 44.64 72.2731 43.24C73.9931 41.8 74.8531 39.76 74.8531 37.12C74.8531 31.8 71.5331 29.14 64.8931 29.14C63.4531 29.14 61.9731 29.24 60.4531 29.44C60.1331 29.52 59.9731 29.72 59.9731 30.04ZM55.0531 67C54.1331 67 53.3331 66.66 52.6531 65.98C52.0131 65.3 51.6931 64.5 51.6931 63.58V26.92C51.6931 25.96 52.0131 25.1 52.6531 24.34C53.2931 23.58 54.0931 23.16 55.0531 23.08C58.4531 22.76 61.7331 22.6 64.8931 22.6C70.8931 22.6 75.3931 23.8 78.3931 26.2C81.3931 28.56 82.8931 32 82.8931 36.52C82.8931 41.52 81.4331 45.3 78.5131 47.86C75.6331 50.42 71.3531 51.7 65.6731 51.7C64.3531 51.7 62.6131 51.62 60.4531 51.46C60.1331 51.46 59.9731 51.62 59.9731 51.94V63.58C59.9731 64.5 59.6331 65.3 58.9531 65.98C58.2731 66.66 57.4731 67 56.5531 67H55.0531Z" fill="#CF6868"/>
</g>
</svg>
