<?xml version="1.0" standalone="no"?>
<!DOCTYPE svg PUBLIC "-//W3C//DTD SVG 20010904//EN"
 "http://www.w3.org/TR/2001/REC-SVG-20010904/DTD/svg10.dtd">
<svg version="1.0" xmlns="http://www.w3.org/2000/svg"
 width="565.000000pt" height="505.000000pt" viewBox="0 0 565.000000 505.000000"
 preserveAspectRatio="xMidYMid meet">

<g transform="translate(0.000000,505.000000) scale(0.100000,-0.100000)"
fill="#000000" stroke="none">
<path d="M2800 4753 c-564 -41 -1084 -278 -1479 -674 -348 -349 -572 -797
-647 -1294 -25 -164 -25 -505 -1 -660 40 -256 104 -463 216 -690 180 -366 428
-652 758 -876 298 -202 583 -317 940 -380 110 -20 162 -23 368 -23 268 0 384
15 618 79 124 34 337 112 337 124 0 4 9 7 21 8 11 1 66 27 122 58 305 169 545
376 741 640 108 145 161 232 240 395 104 215 165 415 203 660 25 161 25 510 0
670 -119 758 -574 1385 -1255 1727 -353 177 -792 265 -1182 236z m430 -609
c181 -28 372 -99 467 -176 51 -40 117 -125 147 -188 11 -25 26 -48 31 -52 6
-4 7 -8 3 -8 -4 0 0 -19 8 -42 31 -84 55 -225 61 -350 l5 -126 -54 -12 -55
-12 9 -52 c26 -165 98 -803 98 -868 0 -178 -70 -356 -190 -482 l-70 -73 0
-279 0 -279 -97 96 c-85 83 -266 229 -324 259 -18 10 -19 6 -19 -111 0 -144
-11 -170 -90 -213 -141 -77 -362 -41 -413 67 -13 26 -17 63 -17 151 0 64 -3
116 -7 115 -5 0 -64 -36 -133 -80 -69 -44 -159 -95 -200 -115 -198 -94 -241
-118 -300 -168 l-64 -55 -81 -3 -80 -3 2 1105 c0 608 4 1133 7 1167 6 71 30
161 57 216 11 20 17 37 14 37 -3 0 3 9 13 20 10 11 25 32 33 46 11 22 99 117
99 108 0 -13 90 61 166 136 50 50 96 90 103 90 6 0 11 5 11 10 0 6 3 9 8 8 4
-1 26 8 49 20 23 12 64 30 90 40 26 11 57 22 68 27 11 4 31 9 44 11 13 2 31 6
40 10 18 7 45 11 166 24 99 10 269 4 395 -16z m-1270 -3119 c-24 -25 -46 -45
-49 -45 -3 0 15 20 39 45 24 25 46 45 49 45 3 0 -15 -20 -39 -45z m1801 18
c13 -16 12 -17 -3 -4 -10 7 -18 15 -18 17 0 8 8 3 21 -13z m44 -74 c9 -17 15
-33 13 -35 -3 -2 -12 12 -21 31 -21 43 -13 47 8 4z m-1915 -12 c0 -1 -26 -27
-57 -57 l-58 -55 55 58 c50 53 60 62 60 54z m-110 -120 c0 -2 -12 -14 -27 -28
l-28 -24 24 28 c23 25 31 32 31 24z m2087 -59 c-3 -8 -6 -5 -6 6 -1 11 2 17 5
13 3 -3 4 -12 1 -19z m-2147 -12 c0 -2 -8 -10 -17 -17 -16 -13 -17 -12 -4 4
13 16 21 21 21 13z m2157 -28 c-3 -8 -6 -5 -6 6 -1 11 2 17 5 13 3 -3 4 -12 1
-19z m10 -60 c-3 -7 -5 -2 -5 12 0 14 2 19 5 13 2 -7 2 -19 0 -25z m-2227 8
c0 -2 -8 -10 -17 -17 -16 -13 -17 -12 -4 4 13 16 21 21 21 13z m-30 -40 c0 -2
-8 -10 -17 -17 -16 -13 -17 -12 -4 4 13 16 21 21 21 13z m2267 -28 c-3 -7 -5
-2 -5 12 0 14 2 19 5 13 2 -7 2 -19 0 -25z m10 -75 c-3 -10 -5 -4 -5 12 0 17
2 24 5 18 2 -7 2 -21 0 -30z m10 -140 c-2 -16 -4 -3 -4 27 0 30 2 43 4 28 2
-16 2 -40 0 -55z"/>
<path d="M3748 3153 c7 -3 16 -2 19 1 4 3 -2 6 -13 5 -11 0 -14 -3 -6 -6z"/>
<path d="M2928 3133 c7 -3 16 -2 19 1 4 3 -2 6 -13 5 -11 0 -14 -3 -6 -6z"/>
<path d="M3628 3133 c7 -3 16 -2 19 1 4 3 -2 6 -13 5 -11 0 -14 -3 -6 -6z"/>
<path d="M2998 3123 c7 -3 16 -2 19 1 4 3 -2 6 -13 5 -11 0 -14 -3 -6 -6z"/>
<path d="M3548 3123 c6 -2 18 -2 25 0 6 3 1 5 -13 5 -14 0 -19 -2 -12 -5z"/>
<path d="M3083 3113 c9 -2 25 -2 35 0 9 3 1 5 -18 5 -19 0 -27 -2 -17 -5z"/>
<path d="M3443 3113 c9 -2 25 -2 35 0 9 3 1 5 -18 5 -19 0 -27 -2 -17 -5z"/>
<path d="M2472 3080 c0 -14 2 -19 5 -12 2 6 2 18 0 25 -3 6 -5 1 -5 -13z"/>
<path d="M3520 3021 c-15 -4 -26 -15 -28 -29 -3 -22 -2 -22 80 -16 58 4 96 1
128 -9 53 -16 70 -13 70 13 0 37 -167 64 -250 41z"/>
<path d="M2472 2885 c0 -16 2 -22 5 -12 2 9 2 23 0 30 -3 6 -5 -1 -5 -18z"/>
<path d="M2782 2889 c-56 -11 -140 -50 -170 -79 -21 -20 -22 -24 -9 -38 14
-13 21 -12 64 16 43 28 79 40 166 57 22 5 28 10 25 28 -4 25 -17 28 -76 16z"/>
<path d="M3548 2871 c-65 -45 -61 -180 7 -248 39 -39 64 -41 102 -9 26 22 28
30 28 98 0 40 -4 85 -8 100 -8 24 -5 29 30 47 43 23 40 24 -71 25 -44 1 -75
-4 -88 -13z"/>
<path d="M2809 2731 c-13 -10 -40 -21 -60 -25 -19 -3 -44 -13 -55 -21 -18 -14
-18 -14 6 -15 56 -1 70 -10 70 -48 0 -19 5 -52 12 -74 12 -40 67 -98 94 -98
99 0 113 204 19 278 -34 27 -55 28 -86 3z"/>
<path d="M2120 2646 c0 -2 8 -10 18 -17 15 -13 16 -12 3 4 -13 16 -21 21 -21
13z"/>
<path d="M2019 2603 l-24 -28 28 24 c25 23 32 31 24 31 -2 0 -14 -12 -28 -27z"/>
<path d="M2270 2567 c0 -2 15 -16 33 -33 l32 -29 -29 33 c-28 30 -36 37 -36
29z"/>
<path d="M1961 2364 c0 -11 3 -14 6 -6 3 7 2 16 -1 19 -3 4 -6 -2 -5 -13z"/>
<path d="M2191 2079 c-73 -72 -9 -184 93 -165 20 4 44 18 55 32 24 31 38 87
22 92 -6 2 -11 10 -11 17 0 24 -51 55 -91 55 -29 0 -45 -7 -68 -31z"/>
<path d="M2570 1788 c41 -45 50 -53 50 -45 0 2 -21 23 -47 47 l-48 45 45 -47z"/>
<path d="M2720 1612 l5 -67 3 59 c2 32 -1 63 -5 67 -4 4 -6 -22 -3 -59z"/>
<path d="M3338 1573 c7 -3 16 -2 19 1 4 3 -2 6 -13 5 -11 0 -14 -3 -6 -6z"/>
<path d="M3241 1534 c0 -11 3 -14 6 -6 3 7 2 16 -1 19 -3 4 -6 -2 -5 -13z"/>
</g>
</svg>
