<?xml version="1.0" standalone="no"?>
<!DOCTYPE svg PUBLIC "-//W3C//DTD SVG 20010904//EN"
 "http://www.w3.org/TR/2001/REC-SVG-20010904/DTD/svg10.dtd">
<svg version="1.0" xmlns="http://www.w3.org/2000/svg"
 width="565.000000pt" height="505.000000pt" viewBox="0 0 565.000000 505.000000"
 preserveAspectRatio="xMidYMid meet">

<g transform="translate(0.000000,505.000000) scale(0.100000,-0.100000)"
fill="#000000" stroke="none">
<path d="M2736 4155 c-224 -43 -390 -125 -505 -251 -29 -32 -72 -70 -95 -84
-110 -70 -187 -173 -238 -321 l-33 -94 0 -1160 0 -1160 73 -5 73 -5 -81 -79
c-108 -105 -194 -203 -274 -310 l-66 -89 96 -64 c264 -177 562 -294 901 -354
110 -20 162 -23 368 -23 268 0 384 14 619 79 105 29 321 106 335 120 8 9 0
151 -15 255 -30 208 -78 345 -160 460 l-35 49 1 295 c0 163 -3 296 -7 296 -5
0 -26 -12 -46 -26 -80 -54 -178 -88 -332 -113 l-70 -12 3 -144 c4 -132 2 -147
-17 -178 -64 -105 -299 -136 -423 -58 -72 46 -78 68 -78 293 l0 195 -49 31
c-81 53 -193 181 -242 276 -28 54 -47 82 -53 76 -15 -15 -36 -12 -36 4 0 25
-50 56 -91 56 -29 0 -45 -7 -69 -31 l-31 -32 -37 30 c-51 42 -108 127 -134
203 -30 89 -31 208 -1 265 39 73 109 119 142 92 9 -7 39 -22 66 -32 32 -11 69
-37 102 -69 l52 -52 44 106 c74 172 82 212 81 395 0 132 -4 172 -22 230 -11
38 -20 71 -18 72 1 1 44 -16 95 -38 104 -45 261 -90 396 -115 136 -25 486 -30
645 -10 121 16 366 62 382 72 21 13 -3 263 -38 403 -79 314 -248 461 -624 542
-128 28 -438 35 -554 14z"/>
<path d="M3520 3021 c-15 -4 -26 -15 -28 -29 -3 -22 -2 -22 80 -16 58 4 96 1
128 -9 53 -16 70 -13 70 13 0 37 -167 64 -250 41z"/>
<path d="M2782 2889 c-56 -11 -140 -50 -170 -79 -21 -20 -22 -24 -9 -38 14
-13 21 -12 64 16 43 28 79 40 166 57 22 5 28 10 25 28 -4 25 -17 28 -76 16z"/>
<path d="M3548 2871 c-65 -45 -61 -180 7 -248 39 -39 64 -41 102 -9 26 22 28
30 28 98 0 40 -4 85 -8 100 -8 24 -5 29 30 47 43 23 40 24 -71 25 -44 1 -75
-4 -88 -13z"/>
<path d="M3200 2793 c-15 -7 -19 -13 -9 -13 10 0 25 -30 46 -97 18 -54 35
-107 39 -117 5 -14 4 -17 -4 -12 -7 4 -12 2 -12 -3 0 -6 7 -11 15 -11 8 0 16
-7 17 -15 0 -8 1 -21 2 -27 2 -21 18 -27 43 -17 12 5 23 6 23 3 0 -4 7 -1 15
6 22 18 63 -11 63 -44 0 -23 -31 -63 -47 -60 -6 1 -13 0 -47 -11 -15 -5 -17
-46 -1 -45 4 0 22 0 40 0 25 0 44 10 75 38 38 36 41 41 35 78 -3 21 -10 45
-16 52 -9 11 -3 16 16 13 4 0 7 2 7 7 0 11 -130 41 -136 31 -11 -18 -23 -8
-38 34 -9 23 -18 51 -19 62 -2 11 -9 32 -15 46 -6 15 -15 45 -21 67 -12 45
-33 55 -71 35z"/>
<path d="M2809 2731 c-13 -10 -40 -21 -60 -25 -19 -3 -44 -13 -55 -21 -18 -14
-18 -14 6 -15 56 -1 70 -10 70 -48 0 -19 5 -52 12 -74 12 -40 67 -98 94 -98
99 0 113 204 19 278 -34 27 -55 28 -86 3z"/>
<path d="M3455 2063 c-26 -9 -66 -13 -112 -11 -69 3 -73 2 -67 -17 23 -81 110
-118 185 -79 31 15 59 66 59 104 0 23 -9 23 -65 3z"/>
</g>
</svg>
