<?xml version="1.0" encoding="utf-8"?>
<!-- Generator: Adobe Illustrator 24.3.0, SVG Export Plug-In . SVG Version: 6.00 Build 0)  -->
<svg version="1.1" xmlns="http://www.w3.org/2000/svg" xmlns:xlink="http://www.w3.org/1999/xlink" x="0px" y="0px"
	 viewBox="0 0 151.58 178.1" style="enable-background:new 0 0 151.58 178.1;" xml:space="preserve">
<style type="text/css">
	.st0{fill:#FFFFFF;}
	.st1{fill:#1A1A1A;}
	.st2{fill:#FFFFFF;stroke:#000000;stroke-miterlimit:10;}
	.st3{fill:#020203;}
	.st4{fill:none;stroke:#010202;stroke-width:0.5841;stroke-miterlimit:10;}
	.st5{fill:none;stroke:#010202;stroke-width:0.5534;stroke-miterlimit:10;}
</style>
<g id="BACKGROUND">
	<rect x="288.53" y="250.11" class="st0" width="750" height="500"/>
</g>
<g id="OBJECTS">
	<g>
		<path class="st1" d="M39.18,85.99c8-10.19,16-19.1,24-30.56c2.77-4.12,6.05-6.28,9.55-7.06L72.2,24.12l-31.28,3.52
			c-5.83,4.96-10.74,11.56-14.68,24.6c-2.01,6.66,0.29,18.06-1.53,25.18c-2.38,9.3-8.4,7.74-9.99,19.43
			c-0.6,4.39,2.4,15.25,2.68,18.78c0.72,9.23-3.29,11.09-3.29,11.09c2.24,1.27,6.36,3.35,10.61,3.69l1.47-7.4
			c1.04,2.45,1.05,7.56,1.05,7.56c2.89,0.32,8.35,1.2,11.29,1.15c1.88-2.65,2.96-5.72,2.96-8.8
			C42.61,110.18,30.03,96.17,39.18,85.99z"/>
		<path class="st1" d="M128.9,115.62c0.28-3.53,3.88-11.5,3.28-15.89c-1.59-11.69-8.84-16.09-11.22-25.39
			c-1.82-7.11,1.17-15.45-0.85-22.11c-3.94-13.04-8.85-19.63-14.68-24.6l-31.28-3.52L73.62,48.2c9.28-1.44,19.99,6.39,27.27,13.6
			c5.71,5.09,2.29,15.28,3.43,22.92c0,3.82,5.71,6.37,8,10.19c4.57,10.19-4.57,22.92,0,33.1c0.33,1.31,0.83,2.49,1.44,3.59
			c2.43-0.15,7.51-0.95,9.85-1.41c1.34-0.26-0.72-7.19-0.72-7.19c1.16-0.34,3.18,6.48,4.29,6.04c1.38-0.54,3.81-1.61,5.08-2.33
			C132.26,126.71,128.18,124.86,128.9,115.62z"/>
		<path class="st1" d="M112.32,94.9c-2.29-3.82-8-6.37-8-10.19c-1.14-7.64,2.29-17.82-3.43-22.92c-7.28-7.21-17.98-15.04-27.27-13.6
			l-0.45,20.38l-0.45-20.21c-3.5,0.78-6.78,2.94-9.55,7.06c-8,11.46-16,20.37-24,30.56c-9.14,10.19,3.43,24.19,2.29,36.92
			c0,3.08-1.08,6.15-2.96,8.8c15.34-0.28,30.36-4.87,34.67-6.3c4.86,1.61,23.37,7.26,40.58,6.18c-0.6-1.1-1.1-2.28-1.44-3.59
			C107.75,117.82,116.89,105.09,112.32,94.9z"/>
		<g>
			<path class="st2" d="M24.73,162.08h42.64l-3.83-57.53C22.15,110.61,24.73,161.08,24.73,162.08z"/>
			<path class="st1" d="M72.04,103.94c-3.02,0-5.85,0.21-8.5,0.6l3.83,57.53h13.76l3.8-56.99
				C81.07,104.35,76.79,103.94,72.04,103.94z"/>
			<path class="st2" d="M64.9,104.36c0,0-3.56,13.35,9.98,13.48c13.54,0.14,10.05-12.75,10.05-12.75S76.97,101.74,64.9,104.36z"/>
			<path class="st2" d="M84.93,105.09l-3.8,56.99h37.86C118.99,162.08,127.51,113.22,84.93,105.09z"/>
		</g>
		<g>
			<path class="st2" d="M65.05,102.05l0.6,7.11c0,0,1.11,5.02,8.77,5.02c8.58,0,9.84-5.02,9.84-5.02l0.11-8.83l0.03-2.03
				C78.71,100.79,69.54,101.73,65.05,102.05z"/>
			<path class="st1" d="M84.49,91.51l-20.14,2.12l0.52,6.17l0.19,2.26c4.48-0.32,13.66-1.25,19.35-3.76L84.49,91.51z"/>
		</g>
		<path class="st2" d="M101.44,37.86c0,0,4.77,12.49,4.77,30.73c0,14.23-11.36,28.16-28.74,29.29c-16.33,1.06-33.3-5.51-38.39-28.42
			c-5.09-22.91,2.12-41.15,22.91-46.24C82.77,18.14,97.2,23.65,101.44,37.86z"/>
		<path class="st2" d="M102.78,65.49c0,0,12.25-4.45,12.88,8.11c0.52,10.2-8.42,12.2-13.89,8.47"/>
		<g>
			<path class="st3" d="M103.26,79.58c0.03,0,0.07-0.01,0.1-0.02c0.13-0.06,0.18-0.21,0.12-0.33c-0.03-0.06-2.71-6.1,1.5-8.91
				c1.48-0.99,2.94-1.33,4.34-1.03c2.42,0.53,3.88,2.84,3.89,2.86c0.07,0.12,0.23,0.15,0.35,0.08c0.12-0.07,0.15-0.23,0.08-0.35
				c-0.06-0.1-1.58-2.51-4.21-3.09c-1.54-0.33-3.13,0.03-4.73,1.1c-4.57,3.05-1.71,9.48-1.68,9.54
				C103.07,79.52,103.17,79.58,103.26,79.58z"/>
		</g>
		<g>
			<path class="st3" d="M109.46,74.65c0.08,0,0.15-0.03,0.2-0.1c0.08-0.11,0.06-0.27-0.05-0.35c-0.04-0.03-4.27-3.12-7.4,0.02
				c-0.1,0.1-0.1,0.26,0,0.36c0.1,0.1,0.26,0.1,0.36,0c2.83-2.83,6.71,0,6.75,0.02C109.36,74.63,109.41,74.65,109.46,74.65z"/>
		</g>
		<g>
			<path class="st3" d="M75.31,81.01c-3.85,0-4.29-3.2-4.3-3.23c-0.02-0.14,0.08-0.26,0.22-0.28c0.13-0.02,0.26,0.08,0.28,0.22
				c0.02,0.13,0.46,3.15,4.5,2.76c0.14,0,0.26,0.09,0.28,0.23c0.01,0.14-0.09,0.26-0.23,0.28C75.8,81,75.55,81.01,75.31,81.01z"/>
		</g>
		<path class="st2" d="M42.69,65.49c0,0-12.25-4.45-12.88,8.11c-0.53,10.53,9.23,12.33,14.66,8.08"/>
		<path class="st1" d="M52.26,60.22c0,0-2.51-2.23,2.79-5.01c5.3-2.78,7.16-2.17,8.02-0.78c0.78,1.27-0.43,3.17-3.44,4.68
			C56.03,60.91,53.62,61.5,52.26,60.22z"/>
		<path class="st3" d="M62.42,68.72c0,1.71-1.14,3.1-2.55,3.1c-1.41,0-2.55-1.39-2.55-3.1c0-1.71,1.14-3.1,2.55-3.1
			C61.28,65.61,62.42,67,62.42,68.72z"/>
		<path class="st1" d="M95.53,60.22c0,0,2.51-2.23-2.79-5.01c-5.3-2.78-7.16-2.17-8.02-0.78c-0.78,1.27,0.43,3.17,3.44,4.68
			C91.77,60.91,94.17,61.5,95.53,60.22z"/>
		<path class="st3" d="M84.26,68.72c0,1.71,1.14,3.1,2.55,3.1c1.41,0,2.55-1.39,2.55-3.1c0-1.71-1.14-3.1-2.55-3.1
			C85.4,65.61,84.26,67,84.26,68.72z"/>
		<g>
			<path class="st3" d="M42.21,79.58c-0.03,0-0.07-0.01-0.1-0.02c-0.13-0.06-0.18-0.21-0.12-0.33c0.03-0.06,2.71-6.1-1.5-8.91
				c-1.48-0.99-2.94-1.33-4.34-1.03c-2.42,0.53-3.88,2.84-3.89,2.86c-0.07,0.12-0.23,0.15-0.35,0.08c-0.12-0.07-0.15-0.23-0.08-0.35
				c0.06-0.1,1.58-2.51,4.21-3.09c1.54-0.33,3.13,0.03,4.73,1.1c4.57,3.05,1.71,9.48,1.68,9.54C42.4,79.52,42.31,79.58,42.21,79.58z
				"/>
		</g>
		<g>
			<path class="st3" d="M36.01,74.65c-0.08,0-0.15-0.03-0.2-0.1c-0.08-0.11-0.06-0.27,0.05-0.35c0.04-0.03,4.27-3.12,7.4,0.02
				c0.1,0.1,0.1,0.26,0,0.36c-0.1,0.1-0.26,0.1-0.36,0c-2.83-2.83-6.71,0-6.75,0.02C36.11,74.63,36.06,74.65,36.01,74.65z"/>
		</g>
		<g>
			<path class="st3" d="M76.17,74.93c-0.1,0-0.19-0.05-0.23-0.15c-0.06-0.13,0-0.28,0.12-0.33c0.02-0.01,2.04-0.94,2.93-2.75
				c0.7-1.42,0.48-3.54-0.46-4.46c-0.57-0.55-1.33-0.6-2.22-0.13c-0.03,0.01-0.07,0.04-0.13,0.07c-3.1,1.8-4.5,0.99-5.13,0
				c-1.15-1.83-0.16-16.26-0.04-17.9c0.01-0.14,0.13-0.24,0.27-0.23c0.14,0.01,0.24,0.13,0.23,0.27
				c-0.32,4.41-0.94,16.17-0.04,17.59c0.74,1.18,2.24,1.12,4.45-0.16c0.07-0.04,0.12-0.07,0.15-0.09c1.08-0.56,2.08-0.49,2.8,0.22
				c1.1,1.07,1.36,3.43,0.56,5.05c-0.97,1.97-3.08,2.94-3.17,2.98C76.24,74.93,76.2,74.93,76.17,74.93z"/>
		</g>
		<path class="st1" d="M68.03,20.32c0,0-47.04-6.62-36.25,47.08c0,0,2.57-3.14,8.82-2.61c6.26,0.53,29.55-19.24,30.28-26.11
			c0,0,19.43,26.05,35.33,26.05c3.35,0,6.77,1.59,7.48,2.68c0.71,1.09,8.9-23.36-3.98-36.97C93.9,13.7,77.66,16.77,68.03,20.32z"/>
		<path class="st1" d="M65.12,23.54c-2.37-1.98-4.03-4.79-4.67-7.81c-0.18-0.87,0.75-1.57,1.5-1.1c2.01,1.25,3.54,3.3,4.07,5.62
			c-0.15-2.34-0.3-4.68-0.45-7.03c-0.06-0.95-0.04-2.08,0.74-2.64c0.64-0.46,1.58-0.28,2.19,0.21c0.62,0.49,0.97,1.24,1.26,1.97
			c1.21,3.14,1.44,6.65,0.65,9.92"/>
		<path class="st4" d="M20.84,127.58c-1.24-3.57-2.48-7.15-3.72-10.72c-1.52-4.37-3.05-8.78-3.69-13.4
			c-0.64-4.61-0.34-9.5,1.66-13.7c2.51-5.27,7.48-9.06,9.46-14.56c2.48-6.87-0.28-14.44-0.21-21.76
			c0.1-10.67,5.44-25.78,23.94-30.39c9.92-2.47,13.71,4.35,20.56,12.18"/>
		<path class="st4" d="M82.48,20.38c9.99-2.86,21.18,0.23,28.82,7.95c7.64,7.72,11.48,19.83,9.9,31.18
			c-0.41,2.93-1.15,5.86-0.84,8.8c0.99,9.24,11.53,14.03,13.28,23.12c0.79,4.09-0.38,8.31-1.73,12.2c-1.35,3.9-2.93,7.83-2.99,12.01
			c-0.06,4.18,1.86,8.74,5.44,10"/>
		<path class="st5" d="M65.65,21.41c2.41,12.06,8.66,23.31,17.62,31.73c8.96,8.42,20.58,13.96,32.76,15.62"/>
		<path class="st2" d="M39.88,81.02c1.09-1.09,2.85-1.09,3.94,0c1.09,1.09,1.09,2.85,0,3.94c-1.09,1.09-2.85,1.09-3.94,0
			C38.79,83.88,38.79,82.11,39.88,81.02z"/>
		<path class="st2" d="M102.59,81.02c1.09-1.09,2.85-1.09,3.94,0c1.09,1.09,1.09,2.85,0,3.94c-1.09,1.09-2.85,1.09-3.94,0
			C101.51,83.88,101.51,82.11,102.59,81.02z"/>
		<g>
			<g>
				<path class="st1" d="M78.81,68.31c-0.33-7.46,5.47-13.8,12.92-14.13c7.46-0.33,13.8,5.47,14.13,12.92
					c0.33,7.46-5.47,13.8-12.92,14.13C85.49,81.57,79.15,75.77,78.81,68.31z M79.53,68.28c0.31,7.06,6.32,12.55,13.38,12.24
					c7.06-0.31,12.55-6.32,12.24-13.38c-0.31-7.06-6.32-12.55-13.38-12.24C84.71,55.22,79.22,61.22,79.53,68.28z"/>
			</g>
			<g>
				<path class="st1" d="M41.84,69.96c-0.33-7.46,5.47-13.8,12.92-14.13c7.46-0.33,13.8,5.47,14.13,12.92
					c0.33,7.46-5.47,13.8-12.92,14.13C48.51,83.22,42.17,77.42,41.84,69.96z M42.55,69.93c0.31,7.06,6.32,12.55,13.38,12.24
					c7.06-0.31,12.55-6.32,12.24-13.38c-0.31-7.06-6.32-12.55-13.38-12.24C47.73,56.87,42.24,62.87,42.55,69.93z"/>
			</g>
			<g>
				<path class="st1" d="M68.46,67.25c0.06,0,0.12-0.02,0.18-0.06c5.01-3.24,10.36-0.49,10.42-0.46c0.18,0.09,0.39,0.02,0.49-0.15
					c0.09-0.18,0.03-0.39-0.15-0.49c-0.06-0.03-5.78-2.97-11.14,0.5c-0.17,0.11-0.21,0.33-0.11,0.5
					C68.21,67.2,68.34,67.25,68.46,67.25z"/>
			</g>
		</g>
		<path class="st2" d="M68.84,162.08l-3.94-57.72l-16.46,21.92c-0.56,0.75-0.49,1.8,0.17,2.46l7.72,7.75
			c0.58,0.59,0.7,1.49,0.28,2.21l-4.35,7.47c-0.37,0.64-0.38,1.43-0.02,2.07l7.62,13.83H68.84z"/>
		<path class="st2" d="M80.42,162.08l3.94-57.72l16.46,21.92c0.56,0.75,0.49,1.8-0.17,2.46l-7.72,7.75
			c-0.59,0.59-0.7,1.49-0.29,2.21l4.35,7.47c0.37,0.64,0.38,1.43,0.02,2.07l-7.62,13.83H80.42z"/>
		<line class="st2" x1="39.55" y1="162.08" x2="40.99" y2="139.19"/>
		<line class="st2" x1="106.21" y1="162.08" x2="104.77" y2="139.19"/>
	</g>
</g>
</svg>
