<svg width="50" height="44" viewBox="0 0 50 44" fill="none" xmlns="http://www.w3.org/2000/svg">
<g id="BackUpIcon-v2">
<path id="ArrowUp" d="M32.9115 28H25.0109H17.1102C15.9816 28 23.8649 18.1629 25.0109 19.0575C26.1568 19.9522 33.9099 27.6664 32.9115 28Z" fill="black"/>
<path id="UP" d="M24.28 15.552C24.28 15.648 24.256 15.708 24.208 15.732C24.16 15.764 24.104 15.78 24.04 15.78C23.992 15.78 23.928 15.772 23.848 15.756C23.808 15.748 23.748 15.708 23.668 15.636C23.596 15.572 23.516 15.496 23.428 15.408C23.332 15.312 23.228 15.204 23.116 15.084L22.516 14.4C22.5 14.424 22.464 14.476 22.408 14.556C22.352 14.628 22.28 14.708 22.192 14.796C22.112 14.876 22.016 14.948 21.904 15.012C21.792 15.076 21.672 15.108 21.544 15.108C21.456 15.108 21.348 15.08 21.22 15.024C21.1 14.976 20.976 14.904 20.848 14.808C20.72 14.712 20.592 14.596 20.464 14.46C20.344 14.324 20.24 14.172 20.152 14.004C20.04 13.788 19.944 13.564 19.864 13.332C19.792 13.092 19.732 12.852 19.684 12.612C19.644 12.372 19.616 12.136 19.6 11.904C19.584 11.664 19.576 11.44 19.576 11.232C19.576 10.936 19.588 10.724 19.612 10.596C19.644 10.468 19.74 10.404 19.9 10.404C19.964 10.404 20.012 10.428 20.044 10.476C20.084 10.516 20.104 10.56 20.104 10.608C20.104 11.056 20.136 11.512 20.2 11.976C20.264 12.432 20.356 12.852 20.476 13.236C20.596 13.612 20.744 13.92 20.92 14.16C21.104 14.4 21.316 14.52 21.556 14.52C21.66 14.52 21.752 14.484 21.832 14.412C21.912 14.332 21.976 14.24 22.024 14.136C22.08 14.032 22.12 13.932 22.144 13.836C22.168 13.74 22.184 13.668 22.192 13.62C22.144 13.508 22.092 13.36 22.036 13.176C21.988 12.984 21.944 12.776 21.904 12.552C21.864 12.328 21.832 12.096 21.808 11.856C21.784 11.616 21.772 11.384 21.772 11.16C21.772 10.816 21.772 10.536 21.772 10.32C21.78 10.096 21.796 9.924 21.82 9.804C21.844 9.676 21.88 9.592 21.928 9.552C21.976 9.504 22.044 9.48 22.132 9.48C22.18 9.48 22.224 9.496 22.264 9.528C22.312 9.552 22.348 9.58 22.372 9.612C22.404 9.644 22.428 9.676 22.444 9.708C22.46 9.74 22.468 9.76 22.468 9.768C22.468 9.8 22.46 9.828 22.444 9.852C22.428 9.868 22.42 9.892 22.42 9.924C22.42 9.988 22.428 10.08 22.444 10.2C22.468 10.32 22.492 10.444 22.516 10.572C22.564 10.828 22.608 11.12 22.648 11.448C22.696 11.776 22.72 12.156 22.72 12.588V13.092C22.72 13.156 22.752 13.288 22.816 13.488C22.888 13.68 23.044 13.964 23.284 14.34C23.444 14.596 23.592 14.8 23.728 14.952C23.872 15.104 23.988 15.224 24.076 15.312C24.132 15.36 24.18 15.404 24.22 15.444C24.26 15.492 24.28 15.528 24.28 15.552ZM22.444 11.544C22.436 11.496 22.424 11.436 22.408 11.364C22.392 11.292 22.372 11.22 22.348 11.148C22.332 11.076 22.316 11.016 22.3 10.968C22.292 10.92 22.288 10.896 22.288 10.896C22.288 10.984 22.288 11.092 22.288 11.22C22.296 11.34 22.304 11.464 22.312 11.592C22.328 11.712 22.344 11.832 22.36 11.952C22.376 12.064 22.396 12.16 22.42 12.24C22.42 12.184 22.424 12.128 22.432 12.072C22.432 12.024 22.432 11.972 22.432 11.916C22.44 11.852 22.444 11.788 22.444 11.724V11.544ZM27.549 9.312C27.549 9.832 27.485 10.288 27.357 10.68C27.237 11.072 27.097 11.42 26.937 11.724C26.785 12.02 26.633 12.288 26.481 12.528C26.337 12.76 26.241 12.984 26.193 13.2C26.153 13.344 26.065 13.416 25.929 13.416C25.913 13.416 25.901 13.416 25.893 13.416C25.885 13.408 25.873 13.404 25.857 13.404C25.913 13.54 25.997 13.696 26.109 13.872C26.221 14.04 26.333 14.212 26.445 14.388C26.557 14.564 26.653 14.736 26.733 14.904C26.821 15.072 26.865 15.216 26.865 15.336C26.865 15.4 26.821 15.46 26.733 15.516C26.653 15.58 26.581 15.612 26.517 15.612C26.485 15.612 26.461 15.592 26.445 15.552C26.365 15.264 26.217 14.956 26.001 14.628C25.785 14.3 25.561 13.932 25.329 13.524C25.105 13.116 24.905 12.656 24.729 12.144C24.553 11.632 24.465 11.052 24.465 10.404C24.465 10.132 24.477 9.904 24.501 9.72C24.533 9.528 24.617 9.432 24.753 9.432C24.833 9.432 24.889 9.456 24.921 9.504C24.953 9.552 24.969 9.604 24.969 9.66C24.969 10.388 25.037 11.028 25.173 11.58C25.309 12.132 25.461 12.56 25.629 12.864L25.833 12.552C26.041 12.232 26.221 11.952 26.373 11.712C26.525 11.464 26.649 11.224 26.745 10.992C26.841 10.752 26.909 10.508 26.949 10.26C26.997 10.012 27.021 9.724 27.021 9.396C27.021 9.308 27.009 9.212 26.985 9.108C26.969 9.004 26.937 8.912 26.889 8.832C26.849 8.744 26.797 8.672 26.733 8.616C26.669 8.56 26.589 8.532 26.493 8.532C26.365 8.532 26.169 8.568 25.905 8.64C25.649 8.712 25.385 8.808 25.113 8.928C24.841 9.048 24.593 9.184 24.369 9.336C24.145 9.48 24.009 9.628 23.961 9.78C23.953 9.796 23.941 9.816 23.925 9.84C23.909 9.864 23.893 9.876 23.877 9.876C23.821 9.876 23.761 9.832 23.697 9.744C23.633 9.656 23.601 9.58 23.601 9.516C23.601 9.372 23.665 9.232 23.793 9.096C23.921 8.96 24.081 8.836 24.273 8.724C24.473 8.612 24.693 8.512 24.933 8.424C25.173 8.328 25.405 8.252 25.629 8.196C25.853 8.132 26.053 8.084 26.229 8.052C26.413 8.012 26.545 7.992 26.625 7.992C26.753 7.992 26.873 8.028 26.985 8.1C27.105 8.172 27.205 8.268 27.285 8.388C27.365 8.508 27.429 8.648 27.477 8.808C27.525 8.968 27.549 9.136 27.549 9.312Z" fill="black"/>
</g>
</svg>
