<svg width="50" height="44" viewBox="0 0 50 44" fill="none" xmlns="http://www.w3.org/2000/svg">
<g id="BackUpIcon">
<path id="HexagonUp" d="M37.4381 2.40152L37.4382 2.40171L48.261 20.6939C48.261 20.694 48.2611 20.6941 48.2612 20.6942C48.5797 21.2331 48.5795 21.9043 48.2611 22.4424L37.4383 40.7354C37.1166 41.2789 36.4988 41.6373 35.8223 41.6373H14.1771C13.5002 41.6373 12.8828 41.2791 12.5606 40.7351L1.73942 22.4425L1.739 22.4418C1.42045 21.9039 1.42012 21.2336 1.73929 20.6943L1.73941 20.6941L12.5607 2.40208C12.8828 1.85806 13.5001 1.5 14.1771 1.5H35.8223C36.4993 1.5 37.1167 1.85805 37.4381 2.40152Z" stroke="black" stroke-width="3" stroke-linecap="round"/>
<path id="ArrowUp" d="M32.9115 26H25.0109H17.1102C15.9816 26 23.8649 16.1629 25.0109 17.0575C26.1568 17.9522 33.9099 25.6664 32.9115 26Z" fill="black"/>
</g>
</svg>
