<svg width="20" height="28" viewBox="0 0 20 28" fill="none" xmlns="http://www.w3.org/2000/svg">
<g id="BeehiveLogo">
<path d="M8.41513 13.5808H11.5666C11.7406 13.5808 11.9029 13.4874 11.9899 13.3365L13.5656 10.6074C13.6526 10.4565 13.6526 10.2693 13.5656 10.1186L11.9899 7.3891C11.9029 7.23863 11.7406 7.14488 11.5666 7.14488H8.41513C8.24109 7.14488 8.07895 7.23873 7.99191 7.3891L6.41633 10.1186C6.32923 10.2693 6.32923 10.4565 6.41633 10.6074L7.99191 13.3365C8.07895 13.4874 8.24114 13.5808 8.41513 13.5808Z" fill="black"/>
<path d="M13.5653 17.444L11.9898 14.7154C11.9028 14.5647 11.7406 14.4711 11.5667 14.4711H8.41588C8.24182 14.4711 8.07972 14.5647 7.99269 14.7154L6.41744 17.444C6.33042 17.5948 6.33042 17.782 6.41744 17.9326L7.99269 20.6613C8.07972 20.812 8.24182 20.9056 8.41588 20.9056H11.5667C11.7406 20.9056 11.9028 20.8119 11.9898 20.6613L13.5653 17.9326C13.6522 17.782 13.6522 17.5948 13.5653 17.444Z" fill="black"/>
<path d="M18.2062 3.80035C18.1192 3.64966 17.9571 3.55603 17.7831 3.55603H14.6323C14.4583 3.55603 14.2961 3.64972 14.209 3.80035L12.6336 6.52928C12.5468 6.67972 12.5468 6.86718 12.6336 7.01766L14.209 9.74646C14.2961 9.8972 14.4583 9.99088 14.6323 9.99088H17.7831C17.9571 9.99088 18.1192 9.8972 18.2062 9.74646L19.7816 7.01766C19.8687 6.86708 19.8687 6.67962 19.7816 6.52928L18.2062 3.80035Z" fill="black"/>
<path d="M5.21467 10.8334H2.06381C1.88985 10.8334 1.72762 10.9272 1.64064 11.0777L0.0651852 13.8066C-0.0217284 13.9572 -0.0217284 14.1445 0.0651852 14.2951L1.64064 17.0239C1.72762 17.1746 1.88985 17.2682 2.06381 17.2682H5.21467C5.38863 17.2682 5.55073 17.1746 5.63776 17.0239L7.21311 14.2951C7.30009 14.1444 7.30009 13.9571 7.21311 13.8066L5.63776 11.0777C5.55073 10.9272 5.38863 10.8334 5.21467 10.8334Z" fill="black"/>
<path d="M5.21467 3.39569H2.06381C1.88985 3.39569 1.72762 3.48925 1.64064 3.64001L0.0651852 6.36852C-0.0217284 6.51931 -0.0217284 6.70636 0.0651852 6.8573L1.64064 9.58585C1.72762 9.73659 1.88985 9.83017 2.06381 9.83017H5.21467C5.38863 9.83017 5.55073 9.73659 5.63776 9.58585L7.21311 6.8573C7.30009 6.70641 7.30009 6.51931 7.21311 6.36852L5.63776 3.64001C5.55073 3.48925 5.38863 3.39569 5.21467 3.39569Z" fill="black"/>
<path d="M18.2062 11.2385C18.1192 11.0877 17.9571 10.9941 17.7831 10.9941H14.6323C14.4583 10.9941 14.2961 11.0877 14.209 11.2385L12.6336 13.967C12.5468 14.1177 12.5468 14.3048 12.6336 14.4556L14.209 17.1843C14.2961 17.335 14.4583 17.4286 14.6323 17.4286H17.7831C17.9571 17.4286 18.1192 17.3349 18.2062 17.1843L19.7816 14.4556C19.8687 14.3048 19.8687 14.1177 19.7816 13.967L18.2062 11.2385Z" fill="black"/>
<path d="M18.2062 18.5676C18.1192 18.4172 17.9571 18.3232 17.7831 18.3232H14.6323C14.4583 18.3232 14.2961 18.4172 14.209 18.5676L12.6336 21.2965C12.5468 21.447 12.5468 21.6344 12.6336 21.7851L14.209 24.5137C14.2961 24.6645 14.4583 24.758 14.6323 24.758H17.7831C17.9571 24.758 18.1192 24.6645 18.2062 24.5137L19.7816 21.7851C19.8687 21.6344 19.8687 21.447 19.7816 21.2965L18.2062 18.5676Z" fill="black"/>
<path d="M13.5712 24.5384L11.9958 21.8099C11.9088 21.6591 11.7467 21.5655 11.5727 21.5655H8.42178C8.24777 21.5655 8.08563 21.6591 7.99855 21.8099L6.4232 24.5384C6.33627 24.6892 6.33627 24.8764 6.4232 25.027L7.99855 27.7557C8.08563 27.9064 8.24777 28 8.42178 28H11.5726C11.7466 28 11.9088 27.9063 11.9958 27.7557L13.5712 25.027C13.6582 24.8764 13.6582 24.6892 13.5712 24.5384Z" fill="black"/>
<path d="M5.63776 18.2987C5.55073 18.1479 5.38863 18.0544 5.21467 18.0544H2.06381C1.88985 18.0544 1.72762 18.1479 1.64064 18.2987L0.0651852 21.0272C-0.0217284 21.178 -0.0217284 21.3652 0.0651852 21.5159L1.64064 24.2445C1.72762 24.3952 1.88985 24.4888 2.06381 24.4888H5.21467C5.38863 24.4888 5.55073 24.3952 5.63776 24.2445L7.21311 21.5159C7.30009 21.3652 7.30009 21.178 7.21311 21.0272L5.63776 18.2987Z" fill="black"/>
<path d="M13.5653 2.97298L11.9898 0.244322C11.9028 0.0936243 11.7406 0 11.5667 0H8.41588C8.24182 0 8.07972 0.0936892 7.99269 0.244322L6.41744 2.97298C6.33042 3.12368 6.33042 3.31106 6.41744 3.46163L7.99269 6.1904C8.07972 6.34098 8.24182 6.43471 8.41588 6.43471H11.5667C11.7406 6.43471 11.9028 6.34098 11.9898 6.1904L13.5653 3.46163C13.6522 3.31106 13.6522 3.12361 13.5653 2.97298Z" fill="black"/>
</g>
</svg>
