<?xml version="1.0" standalone="no"?>
<!DOCTYPE svg PUBLIC "-//W3C//DTD SVG 20010904//EN"
 "http://www.w3.org/TR/2001/REC-SVG-20010904/DTD/svg10.dtd">
<svg version="1.0" xmlns="http://www.w3.org/2000/svg"
 width="305.000000pt" height="426.000000pt" viewBox="0 0 305.000000 426.000000"
 preserveAspectRatio="xMidYMid meet">

<g transform="translate(0.000000,426.000000) scale(0.100000,-0.100000)"
fill="#000000" stroke="none">
<path d="M0 3778 c0 -265 2 -479 4 -477 2 2 54 92 116 199 62 107 122 205 133
218 20 22 23 22 307 22 261 0 288 -2 302 -17 9 -10 70 -112 137 -228 101 -176
121 -216 121 -251 0 -35 -19 -75 -121 -250 -66 -115 -128 -217 -136 -226 -15
-16 -42 -18 -301 -18 -251 0 -288 2 -304 16 -10 10 -71 109 -135 221 l-118
205 -3 -262 c-1 -144 -1 -376 0 -517 l3 -255 118 205 c64 112 125 211 135 221
16 14 53 16 304 16 259 0 286 -2 300 -17 9 -10 70 -113 137 -229 101 -175 121
-217 121 -252 0 -34 -20 -75 -117 -244 -64 -112 -125 -213 -136 -226 l-21 -22
-294 2 -295 3 -126 217 -126 217 -3 -250 c-1 -137 -1 -361 0 -499 l3 -249 110
191 c61 105 121 204 133 220 l24 28 287 0 c262 0 289 -2 303 -17 9 -10 70
-112 137 -228 101 -176 121 -216 121 -251 0 -35 -19 -75 -121 -250 -66 -115
-128 -217 -136 -226 -15 -16 -42 -18 -303 -18 -284 0 -287 0 -307 22 -11 13
-67 104 -123 203 -57 99 -109 189 -117 200 -11 16 -13 -56 -13 -453 l0 -472
622 0 c591 0 620 1 605 18 -8 9 -70 111 -136 227 -106 184 -121 216 -121 255
0 40 15 72 120 255 67 116 130 218 142 228 18 15 48 17 297 17 206 0 281 -3
294 -13 9 -6 72 -110 141 -229 106 -183 126 -225 126 -259 0 -35 -20 -77 -126
-260 -69 -121 -133 -223 -143 -229 -10 -6 203 -9 607 -10 l622 0 0 450 c0 248
-2 450 -4 450 -2 0 -52 -84 -111 -187 -60 -104 -119 -203 -132 -221 l-24 -32
-297 2 -297 3 -132 230 c-90 156 -133 239 -133 260 0 31 220 426 263 473 20
22 23 22 307 22 207 0 289 -3 298 -12 6 -6 67 -107 134 -225 l123 -213 3 261
c1 143 1 375 0 515 l-3 255 -124 -216 c-68 -119 -132 -220 -142 -225 -10 -6
-140 -10 -298 -10 l-280 0 -24 33 c-14 17 -77 123 -141 234 -80 139 -116 212
-116 233 0 34 235 452 271 483 19 15 49 17 299 17 l278 0 25 -29 c13 -16 76
-119 138 -228 l114 -198 3 263 c1 144 1 379 0 523 l-3 261 -120 -208 c-66
-115 -127 -216 -137 -226 -16 -16 -43 -18 -301 -18 -258 0 -285 2 -300 18 -8
9 -70 111 -136 227 -158 274 -158 239 -4 507 64 112 125 213 136 226 20 22 23
22 302 22 210 0 285 -3 298 -12 9 -7 70 -107 136 -221 66 -115 122 -211 125
-215 3 -3 6 218 6 491 l0 497 -611 0 c-488 0 -609 -3 -601 -12 5 -7 66 -111
136 -231 91 -158 126 -228 126 -252 0 -23 -35 -93 -126 -251 -69 -120 -133
-225 -142 -231 -12 -10 -88 -13 -303 -13 l-288 0 -19 28 c-10 15 -71 118 -136
229 -92 161 -116 210 -116 240 0 30 24 79 115 238 64 110 125 212 136 228 l20
27 -621 0 -620 0 0 -482z m1833 -635 c8 -10 72 -116 141 -235 92 -159 126
-227 126 -251 0 -24 -33 -90 -121 -242 -67 -116 -130 -220 -142 -232 -20 -23
-23 -23 -308 -23 -217 0 -289 3 -297 13 -6 6 -67 110 -136 230 -99 172 -126
226 -126 255 0 30 26 82 121 247 66 116 130 220 142 233 20 22 23 22 302 22
256 0 283 -2 298 -17z m134 -1337 c97 -166 133 -238 133 -262 0 -23 -35 -93
-126 -251 -69 -120 -131 -224 -136 -230 -8 -10 -81 -13 -303 -13 -266 0 -293
2 -307 18 -8 9 -70 112 -136 229 -96 167 -122 220 -122 249 0 30 26 82 121
248 67 116 129 219 137 229 14 16 39 17 311 15 l296 -3 132 -229z"/>
</g>
</svg>
