<svg width="400" height="565" viewBox="0 0 400 565" fill="none" xmlns="http://www.w3.org/2000/svg">
<g id="BeehiveBackIcons" clip-path="url(#clip0)">
<g id="introduction">
<path id="Introduction" d="M169.614 275.214H233.116C236.622 275.214 239.892 273.331 241.645 270.29L273.397 215.298C275.149 212.259 275.149 208.486 273.397 205.45L241.645 150.45C239.892 147.418 236.622 145.529 233.116 145.529H169.614C166.107 145.529 162.84 147.42 161.086 150.45L129.338 205.45C127.583 208.487 127.583 212.259 129.338 215.298L161.086 270.29C162.84 273.331 166.108 275.214 169.614 275.214Z" fill="#BDC3C7"/>
<g id="avatarV1">
<path id="backHair" d="M226.679 209.942C225.136 207.368 221.289 205.65 221.289 203.076C220.52 197.928 222.832 191.069 218.978 187.633C214.072 182.775 206.863 177.499 200.604 178.469L200.3 192.201L199.997 178.584C197.639 179.109 195.429 180.565 193.563 183.341C188.172 191.062 182.782 197.066 177.392 203.931C171.234 210.797 179.703 220.23 178.935 228.807C178.935 230.883 178.207 232.951 176.94 234.737C187.276 234.548 197.396 231.455 200.3 230.492C203.575 231.577 216.047 235.383 227.642 234.656C227.238 233.915 226.901 233.12 226.672 232.237C223.6 225.385 229.758 216.807 226.679 209.942Z" fill="#CF6868"/>
<path id="sideHairRight" d="M237.85 223.902C238.039 221.524 240.464 216.154 240.06 213.196C238.989 205.319 234.104 202.355 232.5 196.089C231.274 191.298 233.289 185.679 231.928 181.191C229.273 172.405 225.965 167.965 222.036 164.616L200.961 162.245L200.604 178.476C206.856 177.506 214.072 182.782 218.978 187.64C222.825 191.069 220.52 197.935 221.289 203.083C221.289 205.656 225.136 207.375 226.679 209.948C229.758 216.814 223.6 225.391 226.679 232.25C226.901 233.133 227.238 233.928 227.649 234.669C229.286 234.568 232.709 234.029 234.286 233.719C235.189 233.544 233.801 228.875 233.801 228.875C234.582 228.646 235.943 233.241 236.691 232.944C237.621 232.581 239.258 231.86 240.114 231.374C240.114 231.374 237.365 230.128 237.85 223.902Z" fill="#CF6868"/>
<path id="sideHairLeft" d="M177.399 203.938C182.789 197.072 188.179 191.069 193.569 183.348C195.436 180.572 197.646 179.116 200.004 178.591L199.647 162.252L178.571 164.623C174.643 167.965 171.335 172.412 168.68 181.198C167.326 185.686 168.875 193.367 167.649 198.164C166.045 204.43 161.989 203.379 160.918 211.255C160.514 214.213 162.535 221.531 162.724 223.909C163.209 230.128 160.507 231.381 160.507 231.381C162.016 232.237 164.792 233.638 167.656 233.867L168.646 228.882C169.347 230.532 169.354 233.975 169.354 233.975C171.301 234.191 174.98 234.784 176.961 234.75C178.227 232.965 178.955 230.896 178.955 228.821C179.71 220.237 171.234 210.797 177.399 203.938Z" fill="#CF6868"/>
<g id="Vest">
<path id="Vector" d="M167.663 255.206H196.392L193.812 216.444C165.924 220.527 167.663 254.532 167.663 255.206Z" fill="#DB6363" stroke="#414444" stroke-miterlimit="10"/>
<path id="Vector_2" d="M199.539 216.033C197.504 216.033 195.597 216.174 193.812 216.437L196.392 255.199H205.664L208.224 216.801C205.623 216.309 202.739 216.033 199.539 216.033Z" fill="#414444"/>
<path id="Vector_3" d="M194.728 216.316C194.728 216.316 192.33 225.31 201.453 225.398C210.576 225.492 208.224 216.807 208.224 216.807C208.224 216.807 202.861 214.55 194.728 216.316Z" fill="white" stroke="#414444" stroke-miterlimit="10"/>
<path id="Vector_4" d="M208.224 216.807L205.664 255.206H231.173C231.173 255.206 236.914 222.285 208.224 216.807Z" fill="#DB6363" stroke="#414444" stroke-miterlimit="10"/>
<g id="jacket">
<path id="Vector_5" d="M197.383 255.206L194.728 216.316L183.638 231.085C183.261 231.59 183.308 232.298 183.752 232.742L188.954 237.964C189.345 238.362 189.426 238.968 189.143 239.453L186.212 244.486C185.962 244.917 185.956 245.45 186.198 245.881L191.332 255.199H197.383V255.206Z" fill="#DB6363" stroke="#414444" stroke-miterlimit="10"/>
<path id="Vector_6" d="M205.185 255.206L207.84 216.316L218.93 231.085C219.308 231.59 219.261 232.298 218.816 232.742L213.614 237.964C213.217 238.362 213.143 238.968 213.419 239.453L216.35 244.486C216.599 244.917 216.606 245.45 216.363 245.881L211.229 255.199H205.185V255.206Z" fill="#DB6363" stroke="#414444" stroke-miterlimit="10"/>
<path id="Vector_7" d="M177.648 255.206L178.618 239.783" stroke="#414444" stroke-miterlimit="10"/>
<path id="Vector_8" d="M222.562 255.206L221.592 239.783" stroke="#414444" stroke-miterlimit="10"/>
</g>
</g>
<g id="neck">
<path id="Vector_9" d="M194.829 214.759L195.234 219.55C195.234 219.55 195.981 222.932 201.143 222.932C206.924 222.932 207.773 219.55 207.773 219.55L207.847 213.6L207.867 212.232C204.033 213.91 197.855 214.544 194.829 214.759Z" fill="white" stroke="#2B3E51" stroke-miterlimit="10"/>
<path id="Vector_10" d="M207.928 207.658L194.358 209.086L194.708 213.243L194.836 214.766C197.855 214.55 204.04 213.924 207.874 212.232L207.928 207.658Z" fill="#1A1A1A"/>
</g>
<path id="face" d="M219.348 171.509C219.348 171.509 222.562 179.925 222.562 192.214C222.562 201.802 214.908 211.188 203.198 211.949C192.195 212.664 180.761 208.237 177.331 192.801C173.902 177.364 178.76 165.075 192.768 161.645C206.769 158.222 216.491 161.935 219.348 171.509Z" fill="white" stroke="#2B3E51" stroke-miterlimit="10"/>
<g id="NOSE">
<path id="Vector_11" d="M201.985 199.822C201.918 199.822 201.857 199.788 201.83 199.721C201.79 199.633 201.83 199.532 201.911 199.498C201.924 199.492 203.285 198.865 203.885 197.646C204.357 196.689 204.209 195.26 203.575 194.641C203.191 194.27 202.679 194.236 202.079 194.553C202.059 194.56 202.032 194.58 201.992 194.6C199.903 195.813 198.96 195.267 198.535 194.6C197.761 193.367 198.428 183.644 198.508 182.539C198.515 182.445 198.596 182.378 198.69 182.385C198.785 182.391 198.852 182.472 198.845 182.566C198.63 185.538 198.212 193.461 198.818 194.418C199.317 195.213 200.328 195.173 201.817 194.31C201.864 194.283 201.898 194.263 201.918 194.25C202.645 193.872 203.319 193.92 203.804 194.398C204.545 195.119 204.721 196.709 204.182 197.801C203.528 199.128 202.106 199.781 202.046 199.808C202.032 199.822 202.005 199.822 201.985 199.822Z" fill="#020203"/>
<g id="Mouth">
<path id="Vector_12" d="M201.737 202.943C199.143 202.943 198.847 200.787 198.84 200.766C198.827 200.672 198.894 200.591 198.988 200.578C199.076 200.564 199.163 200.632 199.177 200.726C199.19 200.814 199.487 202.848 202.209 202.586C202.303 202.586 202.384 202.646 202.398 202.741C202.404 202.835 202.337 202.916 202.243 202.929C202.067 202.936 201.899 202.943 201.737 202.943Z" fill="#020203"/>
</g>
</g>
<g id="HAIR">
<path id="Vector_13" d="M196.837 159.691C196.837 159.691 165.143 155.231 172.413 191.413C172.413 191.413 174.144 189.297 178.355 189.654C182.573 190.011 198.266 176.691 198.757 172.062C198.757 172.062 211.849 189.614 222.562 189.614C224.819 189.614 227.124 190.685 227.602 191.419C228.08 192.154 233.599 175.68 224.92 166.51C214.268 155.231 203.326 157.299 196.837 159.691Z" fill="#CF6868"/>
<path id="Vector_14" d="M165.042 231.961C164.206 229.555 163.371 227.143 162.535 224.738C161.511 221.793 160.48 218.822 160.049 215.709C159.618 212.603 159.82 209.308 161.167 206.478C162.859 202.928 166.207 200.374 167.541 196.668C169.212 192.039 167.353 186.939 167.4 182.007C167.467 174.818 171.065 164.637 183.53 161.531C190.214 159.866 192.768 164.462 197.383 169.737" stroke="#CF6868" stroke-width="0.5841" stroke-miterlimit="10"/>
<path id="Vector_15" d="M206.573 159.732C213.304 157.805 220.844 159.887 225.992 165.088C231.139 170.29 233.727 178.449 232.662 186.097C232.386 188.071 231.887 190.045 232.096 192.026C232.763 198.252 239.865 201.479 241.044 207.604C241.576 210.359 240.788 213.203 239.878 215.824C238.969 218.451 237.904 221.099 237.864 223.916C237.823 226.732 239.117 229.805 241.529 230.654" stroke="#CF6868" stroke-width="0.5841" stroke-miterlimit="10"/>
</g>
<g id="earR">
<g id="Vector_16">
<path d="M220.251 190.126C220.251 190.126 228.505 187.127 228.929 195.59C229.28 202.463 223.256 203.81 219.57 201.297" fill="white"/>
<path d="M220.251 190.126C220.251 190.126 228.505 187.127 228.929 195.59C229.28 202.463 223.256 203.81 219.57 201.297" stroke="#414444" stroke-miterlimit="10"/>
</g>
<path id="Vector_17" d="M224.752 196.298C224.806 196.298 224.853 196.277 224.887 196.23C224.94 196.156 224.927 196.048 224.853 195.994C224.826 195.974 221.976 193.892 219.867 196.008C219.8 196.075 219.8 196.183 219.867 196.25C219.934 196.318 220.042 196.318 220.109 196.25C222.016 194.344 224.631 196.25 224.657 196.264C224.684 196.284 224.718 196.298 224.752 196.298Z" fill="#020203"/>
<path id="Vector_18" d="M220.574 199.619C220.595 199.619 220.622 199.613 220.642 199.606C220.729 199.565 220.763 199.464 220.723 199.383C220.702 199.343 218.897 195.273 221.733 193.38C222.73 192.713 223.714 192.484 224.658 192.686C226.288 193.043 227.272 194.6 227.279 194.613C227.326 194.694 227.433 194.714 227.514 194.667C227.595 194.62 227.615 194.512 227.568 194.431C227.528 194.364 226.504 192.74 224.732 192.349C223.694 192.127 222.623 192.369 221.545 193.09C218.465 195.145 220.392 199.478 220.413 199.518C220.446 199.579 220.514 199.619 220.574 199.619Z" fill="#020203"/>
</g>
<g id="earL">
<g id="Vector_19">
<path d="M179.764 190.126C179.764 190.126 171.51 187.127 171.085 195.59C170.728 202.685 177.304 203.898 180.963 201.034" fill="white"/>
<path d="M179.764 190.126C179.764 190.126 171.51 187.127 171.085 195.59C170.728 202.685 177.304 203.898 180.963 201.034" stroke="#414444" stroke-miterlimit="10"/>
</g>
<path id="Vector_20" d="M175.263 196.298C175.209 196.298 175.162 196.277 175.128 196.23C175.074 196.156 175.088 196.048 175.162 195.994C175.189 195.974 178.039 193.892 180.148 196.008C180.215 196.075 180.215 196.183 180.148 196.25C180.08 196.318 179.972 196.318 179.905 196.25C177.998 194.344 175.384 196.25 175.357 196.264C175.33 196.284 175.296 196.298 175.263 196.298Z" fill="#020203"/>
<path id="Vector_21" d="M179.44 199.619C179.42 199.619 179.393 199.613 179.373 199.606C179.285 199.565 179.252 199.464 179.292 199.383C179.312 199.343 181.118 195.273 178.281 193.38C177.284 192.713 176.3 192.484 175.357 192.686C173.727 193.043 172.743 194.6 172.736 194.613C172.689 194.694 172.581 194.714 172.5 194.667C172.419 194.62 172.399 194.512 172.446 194.431C172.487 194.364 173.511 192.74 175.283 192.349C176.321 192.127 177.392 192.369 178.47 193.09C181.549 195.145 179.622 199.478 179.602 199.518C179.568 199.579 179.508 199.619 179.44 199.619Z" fill="#020203"/>
</g>
<g id="EARRINGS">
<path id="Vector_22" d="M177.87 200.59C178.605 199.855 179.791 199.855 180.525 200.59C181.259 201.324 181.259 202.51 180.525 203.244C179.791 203.979 178.605 203.979 177.87 203.244C177.136 202.517 177.136 201.324 177.87 200.59Z" fill="#414444"/>
<path id="Vector_23" d="M220.123 200.59C220.857 199.855 222.043 199.855 222.778 200.59C223.512 201.324 223.512 202.51 222.778 203.244C222.043 203.979 220.857 203.979 220.123 203.244C219.395 202.517 219.395 201.324 220.123 200.59Z" fill="#414444"/>
</g>
<g id="glasses">
<g id="Group">
<path id="Vector_24" d="M204.1 192.026C203.878 186.999 207.786 182.728 212.806 182.505C217.832 182.283 222.104 186.191 222.326 191.211C222.549 196.237 218.641 200.509 213.621 200.731C208.601 200.96 204.33 197.052 204.1 192.026ZM204.586 192.006C204.794 196.762 208.844 200.462 213.601 200.253C218.358 200.044 222.057 195.994 221.848 191.238C221.639 186.481 217.59 182.782 212.833 182.99C208.076 183.206 204.377 187.249 204.586 192.006Z" fill="#1A1A1A"/>
</g>
<g id="Group_2">
<path id="Vector_25" d="M179.191 193.138C178.969 188.111 182.876 183.839 187.896 183.617C192.923 183.395 197.194 187.303 197.417 192.322C197.639 197.349 193.731 201.62 188.711 201.843C183.685 202.072 179.413 198.164 179.191 193.138ZM179.669 193.117C179.878 197.874 183.928 201.573 188.684 201.364C193.441 201.156 197.14 197.106 196.931 192.349C196.723 187.592 192.673 183.893 187.916 184.102C183.159 184.318 179.46 188.36 179.669 193.117Z" fill="#1A1A1A"/>
</g>
<g id="Group_3">
<path id="Vector_26" d="M197.127 191.312C197.167 191.312 197.208 191.298 197.248 191.271C200.624 189.088 204.229 190.941 204.269 190.961C204.39 191.022 204.532 190.975 204.599 190.86C204.66 190.739 204.619 190.597 204.498 190.53C204.458 190.51 200.604 188.529 196.992 190.867C196.878 190.941 196.851 191.089 196.918 191.204C196.958 191.278 197.046 191.312 197.127 191.312Z" fill="#1A1A1A"/>
</g>
</g>
<g id="Eyes">
<path id="Vector_27" d="M186.212 186.575C186.212 186.575 184.52 185.072 188.092 183.199C191.663 181.326 192.916 181.737 193.495 182.674C194.021 183.529 193.206 184.81 191.177 185.827C188.752 187.04 187.128 187.437 186.212 186.575Z" fill="#414444"/>
<path id="Vector_28" d="M215.366 186.575C215.366 186.575 217.057 185.072 213.486 183.199C209.915 181.326 208.662 181.737 208.083 182.674C207.557 183.529 208.372 184.81 210.4 185.827C212.833 187.04 214.45 187.437 215.366 186.575Z" fill="#414444"/>
<path id="Vector_29" d="M193.057 192.302C193.057 193.454 192.289 194.391 191.339 194.391C190.389 194.391 189.621 193.454 189.621 192.302C189.621 191.15 190.389 190.213 191.339 190.213C192.289 190.207 193.057 191.143 193.057 192.302Z" fill="#414444"/>
<path id="Vector_30" d="M207.773 192.302C207.773 193.454 208.541 194.391 209.491 194.391C210.441 194.391 211.209 193.454 211.209 192.302C211.209 191.15 210.441 190.213 209.491 190.213C208.541 190.207 207.773 191.143 207.773 192.302Z" fill="#414444"/>
</g>
</g>
</g>
<g id="digital">
<path id="Digital" d="M273.398 351.571L241.646 296.579C239.893 293.541 236.624 291.655 233.118 291.655H169.616C166.108 291.655 162.841 293.541 161.087 296.579L129.339 351.571C127.585 354.611 127.585 358.383 129.339 361.419L161.087 416.413C162.841 419.45 166.108 421.337 169.616 421.337H233.118C236.624 421.337 239.893 419.449 241.646 416.413L273.398 361.419C275.15 358.383 275.15 354.611 273.398 351.571Z" fill="#BDC3C7"/>
<g id="code">
<circle id="Inner" cx="202" cy="356" r="49" fill="#CF6868"/>
<path id="Fill 5" fill-rule="evenodd" clip-rule="evenodd" d="M236.852 360.661L236.594 360.919L219.983 371.159C219.278 371.594 218.428 371.731 217.622 371.54C216.816 371.349 216.119 370.845 215.684 370.14C215.249 369.435 215.112 368.585 215.303 367.779C215.494 366.973 215.998 366.276 216.703 365.841L232.52 356.089C232.536 356.031 232.536 355.969 232.52 355.911L216.703 346.159C216.345 345.949 216.032 345.668 215.783 345.335C215.534 345.002 215.355 344.622 215.254 344.219C215.154 343.815 215.136 343.395 215.2 342.984C215.264 342.574 215.409 342.18 215.627 341.826C215.846 341.472 216.132 341.165 216.471 340.923C216.809 340.681 217.192 340.509 217.598 340.418C218.004 340.326 218.424 340.316 218.833 340.389C219.243 340.461 219.633 340.615 219.983 340.841L236.594 351.081L236.852 351.339C238.085 352.577 238.778 354.253 238.778 356C238.778 357.747 238.085 359.423 236.852 360.661V360.661ZM194.763 383.678C194.62 384.067 194.402 384.424 194.12 384.727C193.839 385.031 193.5 385.276 193.123 385.447C192.746 385.619 192.339 385.714 191.925 385.727C191.511 385.74 191.099 385.67 190.712 385.522C190.326 385.374 189.972 385.151 189.672 384.866C189.373 384.58 189.133 384.238 188.966 383.858C188.8 383.479 188.711 383.071 188.704 382.657C188.697 382.243 188.772 381.832 188.925 381.447L209.237 328.322C209.38 327.933 209.598 327.576 209.88 327.273C210.161 326.969 210.5 326.724 210.877 326.553C211.254 326.381 211.661 326.286 212.075 326.273C212.489 326.26 212.901 326.33 213.288 326.478C213.674 326.626 214.028 326.849 214.328 327.134C214.627 327.42 214.867 327.762 215.034 328.142C215.2 328.521 215.289 328.929 215.296 329.343C215.303 329.757 215.228 330.168 215.075 330.553L194.763 383.678V383.678ZM185.655 371.625C185.095 371.625 184.528 371.475 184.017 371.159L167.406 360.919L167.148 360.661C165.915 359.423 165.222 357.747 165.222 356C165.222 354.253 165.915 352.577 167.148 351.339L167.406 351.081L184.017 340.841C184.722 340.406 185.572 340.269 186.378 340.46C187.184 340.651 187.881 341.155 188.316 341.86C188.751 342.565 188.888 343.415 188.697 344.221C188.506 345.027 188.002 345.724 187.297 346.159L171.48 355.911C171.464 355.969 171.464 356.031 171.48 356.089L187.297 365.841C187.876 366.198 188.322 366.734 188.569 367.368C188.815 368.002 188.848 368.699 188.662 369.353C188.476 370.008 188.082 370.584 187.539 370.994C186.997 371.404 186.335 371.625 185.655 371.625ZM202 306C174.386 306 152 328.386 152 356C152 383.614 174.386 406 202 406C229.614 406 252 383.614 252 356C252 328.386 229.614 306 202 306Z" fill="#BDC3C7"/>
</g>
</g>
<g id="contact">
<path id="Contact" d="M273.398 59.9183L241.646 4.92414C239.893 1.88693 236.624 0 233.118 0H169.616C166.108 0 162.841 1.88824 161.087 4.92414L129.339 59.9183C127.585 62.9555 127.585 66.732 129.339 69.7666L161.087 124.763C162.841 127.798 166.108 129.687 169.616 129.687H233.118C236.624 129.687 239.893 127.798 241.646 124.763L273.398 69.7666C275.15 66.732 275.15 62.9542 273.398 59.9183Z" fill="#BDC3C7"/>
<g id="mail">
<circle id="Letter-Inner" cx="201" cy="65" r="49" fill="#CF6868"/>
<path id="letter" d="M201 16C173.94 16 152 37.94 152 65C152 92.06 173.94 114 201 114C228.06 114 250 92.06 250 65C250 37.94 228.06 16 201 16ZM169.22 40.51H233.09C233.52 40.51 233.92 40.59 234.31 40.71L210.54 61.05L207.39 63.62L201.16 68.69L194.94 63.63L191.78 61.06L167.99 40.71C168.38 40.59 168.79 40.51 169.22 40.51ZM165.12 86.53C164.97 86.09 164.87 85.63 164.87 85.14V44.85C164.87 44.39 164.96 43.95 165.1 43.53L188.78 63.81L165.12 86.53ZM233.09 89.49H169.22C168.81 89.49 168.42 89.41 168.05 89.31L191.94 66.38L201.16 73.88L210.39 66.37L234.27 89.31C233.89 89.42 233.5 89.49 233.09 89.49ZM237.19 86.53L213.54 63.8L237.21 43.53C237.35 43.95 237.44 44.39 237.44 44.85V85.14C237.43 85.63 237.34 86.09 237.19 86.53Z" fill="#BDC3C7"/>
</g>
</g>
<g id="languages">
<path id="Languages" d="M366.933 226.503C365.179 223.464 361.912 221.579 358.405 221.579H294.903C291.396 221.579 288.127 223.464 286.373 226.503L254.622 281.494C252.871 284.533 252.871 288.304 254.622 291.343L286.373 346.337C288.127 349.374 291.396 351.261 294.903 351.261H358.405C361.912 351.261 365.179 349.373 366.933 346.337L398.684 291.343C400.439 288.304 400.439 284.533 398.684 281.494L366.933 226.503Z" fill="#BDC3C7"/>
<g id="world">
<circle id="Inner_2" cx="327.5" cy="285.5" r="48.5" fill="#CF6868"/>
<path id="Vector_31" d="M327 235C299.386 235 277 257.386 277 285C277 312.614 299.386 335 327 335C354.614 335 377 312.614 377 285C377 257.386 354.614 235 327 235ZM322.192 260.481C322.558 260.481 322.908 260.683 323.274 260.721C324.994 261.657 326.928 263.956 328.322 267.452C325.866 267.905 323.3 268.211 320.63 268.173C318.369 268.135 316.222 267.835 314.139 267.452C315.467 264.106 317.219 261.712 318.827 260.601C319.96 260.474 321.043 260.423 322.192 260.481ZM312.216 262.524C311.534 263.726 310.955 264.951 310.413 266.37C310.393 266.424 310.314 266.557 310.293 266.611C309.318 266.314 308.398 266.02 307.529 265.649C308.982 264.409 310.517 263.319 312.216 262.524ZM330.245 262.644C331.951 263.451 333.423 264.348 334.812 265.529C333.94 265.902 333.026 266.311 332.048 266.611C332.022 266.541 332.075 266.439 332.048 266.37C331.52 265.001 330.916 263.803 330.245 262.644ZM337.697 268.413C340.246 271.613 341.766 275.571 342.144 279.712H334.572C334.442 276.35 334.001 273.128 333.25 270.216C334.844 269.723 336.305 269.109 337.697 268.413ZM304.764 268.534C306.15 269.222 307.622 269.848 309.212 270.337C308.448 273.264 307.905 276.383 307.769 279.712H300.077C300.402 276.138 301.629 272.603 303.803 269.495C304.064 269.122 304.483 268.886 304.764 268.534ZM312.937 271.178C315.391 271.657 317.857 271.982 320.51 272.019C323.605 272.062 326.665 271.739 329.524 271.178C330.188 273.76 330.595 276.666 330.726 279.712H311.615C311.752 276.692 312.255 273.791 312.937 271.178ZM300.197 283.558H307.769C307.907 286.79 308.439 289.985 309.212 292.933C307.626 293.426 306.047 294.154 304.644 294.856C302.015 291.555 300.566 287.575 300.197 283.558ZM311.615 283.558H330.726C330.587 286.558 330.093 289.5 329.404 292.091C323.962 291.006 318.242 290.923 312.937 291.971C312.25 289.345 311.754 286.473 311.615 283.558ZM334.572 283.558H342.144C342.135 283.662 342.155 283.814 342.144 283.918C338.941 284.432 336.123 286.126 334.091 288.486C334.327 286.914 334.502 285.211 334.572 283.558ZM344.308 287.524C349.641 287.524 353.923 291.806 353.923 297.139C353.923 301.556 350.074 305.971 346.712 306.514C343.362 307.056 341.146 308.327 338.659 309.519C338.796 308.809 338.87 308.076 338.899 307.356C338.916 306.928 338.873 306.507 338.779 306.034C338.685 305.56 338.557 304.892 337.937 304.351C335.917 302.587 334.692 300.042 334.692 297.139C334.692 291.806 338.975 287.524 344.308 287.524ZM321.471 295.216C323.751 295.216 326.003 295.432 328.202 295.817C326.849 299.147 325.129 301.589 323.514 302.668C322.068 302.826 320.626 302.807 319.187 302.668C317.505 301.801 315.549 299.298 314.139 295.817C316.484 295.402 318.982 295.209 321.471 295.216ZM310.293 296.659C310.861 298.159 311.598 299.6 312.337 300.865C310.611 300.068 309.016 299.01 307.529 297.74C308.428 297.36 309.293 296.955 310.293 296.659ZM330.966 298.942C331.028 299.36 331.106 299.861 331.207 300.264C330.828 300.468 330.391 300.566 330.005 300.745C330.336 300.172 330.668 299.57 330.966 298.942Z" fill="#BDC3C7"/>
</g>
</g>
<g id="interests">
<path id="Interests" d="M366.933 374.217C365.179 371.185 361.912 369.292 358.405 369.292H294.903C291.396 369.292 288.127 371.185 286.373 374.217L254.622 429.216C252.871 432.248 252.871 436.026 254.622 439.064L286.373 494.056C288.127 497.096 291.396 498.98 294.903 498.98H358.405C361.912 498.98 365.179 497.096 366.933 494.056L398.684 439.064C400.439 436.026 400.439 432.248 398.684 429.216L366.933 374.217Z" fill="#BDC3C7"/>
<g id="knowledge">
<g id="Inner_3">
<path id="Vector_32" d="M363 439.248H299C298.47 439.248 297.961 439.459 297.586 439.834C297.211 440.209 297 440.718 297 441.248V451.248H291C290.47 451.248 289.961 451.459 289.586 451.834C289.211 452.209 289 452.718 289 453.248V465.248C289 465.778 289.211 466.287 289.586 466.662C289.961 467.037 290.47 467.248 291 467.248H355C355.53 467.248 356.039 467.037 356.414 466.662C356.789 466.287 357 465.778 357 465.248V455.248H363C363.53 455.248 364.039 455.037 364.414 454.662C364.789 454.287 365 453.778 365 453.248V441.248C365 440.718 364.789 440.209 364.414 439.834C364.039 439.459 363.53 439.248 363 439.248ZM353 463.248H293V455.248H353V463.248ZM361 451.248H301V443.248H361V451.248Z" fill="#CF6868"/>
<path id="Vector_33" d="M313 443.248H309V451.248H313V443.248Z" fill="white"/>
<path id="Vector_34" d="M353 443.248H349V451.248H353V443.248Z" fill="white"/>
<path id="Vector_35" d="M305 455.248H301V463.248H305V455.248Z" fill="white"/>
<path id="Vector_36" d="M345 455.248H341V463.248H345V455.248Z" fill="white"/>
<path id="Vector_37" d="M345.84 404.648C343.249 402.621 340.087 401.46 336.8 401.328C333.911 401.325 331.081 402.143 328.64 403.688C328.2 403.968 327.76 404.248 327.4 404.528C326.733 405.027 326.117 405.59 325.56 406.208L325.4 406.368L324.96 406.808C324.913 405.401 324.698 404.004 324.32 402.648C324.028 402.494 323.719 402.373 323.4 402.288C320.96 401.488 312.56 399.728 305.36 409.728C303.443 412.633 302.399 416.027 302.349 419.507C302.299 422.987 303.247 426.409 305.08 429.368C307.031 433.148 309.709 436.505 312.96 439.248H344.08C345.582 437.652 346.824 435.83 347.76 433.848C355.92 416.968 351.2 408.688 345.84 404.648ZM344.16 432.088C341.2 438.168 337.88 438.928 335.32 438.928C334.428 438.915 333.548 438.724 332.731 438.367C331.913 438.01 331.175 437.494 330.56 436.848L330.52 436.808C330.435 436.682 330.326 436.573 330.2 436.488C330.072 436.399 329.938 436.319 329.8 436.248C329.563 436.134 329.302 436.079 329.04 436.088C328.781 436.069 328.521 436.11 328.28 436.208C328.046 436.288 327.83 436.41 327.64 436.568C326.039 438.022 324.026 438.944 321.88 439.208C318.44 439.208 312.12 434.408 308.64 427.568C307.203 425.235 306.442 422.548 306.442 419.808C306.442 417.068 307.203 414.381 308.64 412.048C309.779 410.037 311.448 408.378 313.465 407.249C315.482 406.121 317.77 405.567 320.08 405.648C321.695 405.801 323.248 406.35 324.6 407.248L324.04 407.808C323.86 407.996 323.719 408.218 323.625 408.462C323.532 408.705 323.487 408.964 323.495 409.225C323.502 409.485 323.561 409.742 323.669 409.979C323.776 410.217 323.929 410.43 324.12 410.608C324.303 410.795 324.522 410.943 324.765 411.043C325.007 411.143 325.267 411.192 325.529 411.189C325.79 411.185 326.049 411.128 326.288 411.021C326.527 410.915 326.742 410.76 326.92 410.568L328.32 409.088L328.68 408.728C330.589 406.767 333.164 405.593 335.897 405.438C338.629 405.282 341.321 406.156 343.44 407.888C349.52 412.408 349.76 420.528 344.16 432.088Z" fill="#CF6868"/>
<path id="Vector_38" d="M336.72 392.288C336.503 391.896 336.16 391.587 335.746 391.413C335.333 391.239 334.873 391.209 334.44 391.328C332.813 391.727 331.289 392.464 329.966 393.491C328.643 394.518 327.55 395.811 326.76 397.288C325.984 395.411 325.047 393.604 323.96 391.888C323.667 391.45 323.212 391.145 322.695 391.04C322.178 390.935 321.641 391.039 321.2 391.328C320.761 391.63 320.456 392.092 320.352 392.614C320.247 393.137 320.35 393.68 320.64 394.128C322.295 396.763 323.536 399.637 324.32 402.648C324.698 404.004 324.913 405.401 324.96 406.808L325.4 406.368L325.56 406.208C326.117 405.59 326.733 405.027 327.4 404.528C327.76 404.248 328.2 403.968 328.64 403.688C331.081 402.143 333.911 401.325 336.8 401.328C336.92 401.088 337.04 400.848 337.16 400.568C337.657 399.231 337.874 397.807 337.798 396.382C337.723 394.958 337.356 393.565 336.72 392.288V392.288ZM333.44 399.048C332.581 400.817 331.079 402.191 329.24 402.888C329.311 401.427 329.761 400.009 330.547 398.774C331.332 397.54 332.426 396.531 333.72 395.848C333.936 396.92 333.839 398.03 333.44 399.048Z" fill="white"/>
</g>
</g>
</g>
<g id="portfolio">
<path id="Portfolio" d="M113.625 368.797C111.871 365.758 108.604 363.873 105.098 363.873H41.5946C38.0886 363.873 34.819 365.758 33.066 368.797L1.31376 423.789C-0.43792 426.827 -0.43792 430.601 1.31376 433.637L33.066 488.631C34.819 491.668 38.0886 493.555 41.5946 493.555H105.098C108.604 493.555 111.871 491.667 113.625 488.631L145.375 433.637C147.128 430.6 147.128 426.827 145.375 423.789L113.625 368.797Z" fill="#BDC3C7"/>
<g id="computer 1">
<g id="computer">
<path id="Vector_39" d="M36.6719 446.383V451.754C36.6719 452.828 37.5508 453.805 38.625 453.805H107.375C108.449 453.805 109.328 452.828 109.328 451.754V446.383H36.6719Z" fill="#ECF0F1"/>
<path id="Vector_40" d="M73 451.656C73.8629 451.656 74.5625 450.957 74.5625 450.094C74.5625 449.231 73.8629 448.531 73 448.531C72.1371 448.531 71.4375 449.231 71.4375 450.094C71.4375 450.957 72.1371 451.656 73 451.656Z" fill="#33495F"/>
<path id="Vector_41" d="M107.375 402.242H38.625C37.5508 402.242 36.6719 403.023 36.6719 404.098V446.383H109.328V404.098C109.328 403.023 108.449 402.242 107.375 402.242ZM106.203 443.648H39.4062V405.367H106.203V443.648Z" fill="#2B3E51"/>
<path id="Vector_42" d="M106.203 405.367H39.4062V443.648H106.203V405.367Z" fill="white" fill-opacity="0.56"/>
<path id="Vector_43" d="M56.9844 465.133V467.086C56.9844 467.73 57.5115 468.258 58.1562 468.258H87.6484C88.293 468.258 88.8203 467.73 88.8203 467.086V465.133H56.9844Z" fill="#BDC3C7"/>
<path id="Vector_44" d="M88.918 465.133H57.082L62.9414 459.469H83.0586L88.918 465.133Z" fill="#ECF0F1"/>
<path id="Vector_45" d="M82.9609 456.93H62.8438V459.469H82.9609V456.93Z" fill="#BDC3C7"/>
<path id="Vector_46" d="M83.0586 456.93H62.9414L60.9883 453.609H85.0117L83.0586 456.93Z" fill="#95A5A6"/>
</g>
<g id="ruler">
<path id="Vector_47" d="M91.6136 390C91.3381 390 91 390.112 91 390.334V415.73V423.321V423.691V444H102V424.121V422.917V415.73V390H91.6136Z" fill="#DB6363"/>
<path id="Vector_48" d="M96.6811 391.695C96.46 391.695 96.2861 391.865 96.2861 392.086C96.2861 392.307 96.4707 392.477 96.6916 392.477H99.7578V391.695H96.6811Z" fill="white" fill-opacity="0.56"/>
<path id="Vector_49" d="M101.711 391.695H99.7578V392.477H101.711V391.695Z" fill="white" fill-opacity="0.56"/>
<path id="Vector_50" d="M96.6916 401.656C96.4707 401.656 96.291 401.826 96.291 402.047C96.291 402.268 96.4707 402.438 96.6916 402.438H99.7578V401.656H96.6916Z" fill="white" fill-opacity="0.56"/>
<path id="Vector_51" d="M101.711 401.656H99.7578V402.438H101.711V401.656Z" fill="white" fill-opacity="0.56"/>
<path id="Vector_52" d="M96.6916 411.617C96.4707 411.617 96.291 411.787 96.291 412.008C96.291 412.229 96.4703 412.398 96.6916 412.398H99.7578V411.617H96.6916Z" fill="white" fill-opacity="0.56"/>
<path id="Vector_53" d="M101.711 411.617H99.7578V412.398H101.711V411.617Z" fill="white" fill-opacity="0.56"/>
<path id="Vector_54" d="M98.2926 394.039C98.0713 394.039 97.892 394.306 97.892 394.527C97.892 394.748 98.0713 395.016 98.2926 395.016H99.7578V394.039H98.2926Z" fill="white" fill-opacity="0.56"/>
<path id="Vector_55" d="M101.711 394.039H99.7578V395.016H101.711V394.039Z" fill="white" fill-opacity="0.56"/>
<path id="Vector_56" d="M98.2926 396.773C98.0713 396.773 97.892 396.846 97.892 397.066C97.892 397.287 98.0713 397.359 98.2926 397.359H99.7578V396.773H98.2926Z" fill="white" fill-opacity="0.56"/>
<path id="Vector_57" d="M101.711 396.773H99.7578V397.359H101.711V396.773Z" fill="white" fill-opacity="0.56"/>
<path id="Vector_58" d="M98.2926 399.117C98.0713 399.117 97.892 399.287 97.892 399.508C97.892 399.729 98.0713 399.898 98.2926 399.898H99.7578V399.117H98.2926Z" fill="white" fill-opacity="0.56"/>
<path id="Vector_59" d="M101.711 399.117H99.7578V399.898H101.711V399.117Z" fill="white" fill-opacity="0.56"/>
<path id="Vector_60" d="M98.2926 404.195C98.0713 404.195 97.892 404.365 97.892 404.586C97.892 404.807 98.0713 404.977 98.2926 404.977H99.7578V404.195H98.2926Z" fill="white" fill-opacity="0.56"/>
<path id="Vector_61" d="M101.711 404.195H99.7578V404.977H101.711V404.195Z" fill="white" fill-opacity="0.56"/>
<path id="Vector_62" d="M98.2926 406.734C98.0713 406.734 97.892 406.904 97.892 407.125C97.892 407.346 98.0713 407.516 98.2926 407.516H99.7578V406.734H98.2926Z" fill="white" fill-opacity="0.56"/>
<path id="Vector_63" d="M101.711 406.734H99.7578V407.516H101.711V406.734Z" fill="white" fill-opacity="0.56"/>
<path id="Vector_64" d="M98.2926 409.273C98.0713 409.273 97.892 409.345 97.892 409.566C97.892 409.787 98.0713 409.859 98.2926 409.859H99.7578V409.273H98.2926Z" fill="white" fill-opacity="0.56"/>
<path id="Vector_65" d="M101.711 409.273H99.7578V409.859H101.711V409.273Z" fill="white" fill-opacity="0.56"/>
<path id="Vector_66" d="M98.2926 414.156C98.0713 414.156 97.892 414.423 97.892 414.645C97.892 414.866 98.0713 415.133 98.2926 415.133H99.7578V414.156H98.2926Z" fill="white" fill-opacity="0.56"/>
<path id="Vector_67" d="M101.711 414.156H99.7578V415.133H101.711V414.156Z" fill="white" fill-opacity="0.56"/>
<path id="Vector_68" d="M98.2926 416.695C98.0713 416.695 97.892 416.865 97.892 417.086C97.892 417.307 98.0713 417.477 98.2926 417.477H99.7578V416.695H98.2926Z" fill="white" fill-opacity="0.56"/>
<path id="Vector_69" d="M101.711 416.695H99.7578V417.477H101.711V416.695Z" fill="white" fill-opacity="0.56"/>
<path id="Vector_70" d="M98.2926 419.039C98.0713 419.039 97.892 419.306 97.892 419.528C97.892 419.748 98.0713 420.016 98.2926 420.016H99.7578V419.039H98.2926Z" fill="white" fill-opacity="0.56"/>
<path id="Vector_71" d="M101.711 419.039H99.7578V420.016H101.711V419.039Z" fill="white" fill-opacity="0.56"/>
<path id="Vector_72" d="M96.6916 421.578C96.4703 421.578 96.291 421.748 96.291 421.97C96.291 422.191 96.4023 422.365 96.6236 422.365L99.7578 422.361V421.578H96.6916Z" fill="white" fill-opacity="0.56"/>
<path id="Vector_73" d="M101.711 421.578H99.7578V422.359H101.711V421.578Z" fill="white" fill-opacity="0.56"/>
<path id="Vector_74" d="M96.6811 424.312C96.46 424.312 96.2861 424.58 96.2861 424.801C96.2861 425.022 96.4707 425.289 96.6916 425.289H99.7578V424.312H96.6811Z" fill="white" fill-opacity="0.56"/>
<path id="Vector_75" d="M101.711 424.312H99.7578V425.289H101.711V424.312Z" fill="white" fill-opacity="0.56"/>
<path id="Vector_76" d="M96.6916 434.273C96.4707 434.273 96.291 434.443 96.291 434.664C96.291 434.885 96.4707 435.055 96.6916 435.055H99.7578V434.273H96.6916Z" fill="white" fill-opacity="0.56"/>
<path id="Vector_77" d="M101.711 434.273H99.7578V435.055H101.711V434.273Z" fill="white" fill-opacity="0.56"/>
<path id="Vector_78" d="M98.2926 426.852C98.0713 426.852 97.892 427.021 97.892 427.242C97.892 427.463 98.0713 427.633 98.2926 427.633H99.7578V426.852H98.2926Z" fill="white" fill-opacity="0.56"/>
<path id="Vector_79" d="M101.711 426.852H99.7578V427.633H101.711V426.852Z" fill="white" fill-opacity="0.56"/>
<path id="Vector_80" d="M98.2926 429.391C98.0713 429.391 97.892 429.56 97.892 429.781C97.892 430.002 98.0713 430.172 98.2926 430.172H99.7578V429.391H98.2926Z" fill="white" fill-opacity="0.56"/>
<path id="Vector_81" d="M101.711 429.391H99.7578V430.172H101.711V429.391Z" fill="white" fill-opacity="0.56"/>
<path id="Vector_82" d="M98.2926 431.93C98.0713 431.93 97.892 432.001 97.892 432.223C97.892 432.444 98.0713 432.516 98.2926 432.516H99.7578V431.93H98.2926Z" fill="white" fill-opacity="0.56"/>
<path id="Vector_83" d="M101.711 431.93H99.7578V432.516H101.711V431.93Z" fill="white" fill-opacity="0.56"/>
<path id="Vector_84" d="M98.2926 436.812C98.0713 436.812 97.892 437.08 97.892 437.301C97.892 437.522 98.0713 437.789 98.2926 437.789H99.7578V436.812H98.2926Z" fill="white" fill-opacity="0.56"/>
<path id="Vector_85" d="M101.711 436.812H99.7578V437.789H101.711V436.812Z" fill="white" fill-opacity="0.56"/>
<path id="Vector_86" d="M98.2926 439.352C98.0713 439.352 97.892 439.521 97.892 439.742C97.892 439.963 98.0713 440.133 98.2926 440.133H99.7578V439.352H98.2926Z" fill="white" fill-opacity="0.56"/>
<path id="Vector_87" d="M101.711 439.352H99.7578V440.133H101.711V439.352Z" fill="white" fill-opacity="0.56"/>
<path id="Vector_88" d="M98.2926 441.891C98.0713 441.891 97.892 442.06 97.892 442.281C97.892 442.502 98.0713 442.672 98.2926 442.672H99.7578V441.891H98.2926Z" fill="white" fill-opacity="0.56"/>
<path id="Vector_89" d="M101.711 441.891H99.7578V442.672H101.711V441.891Z" fill="white" fill-opacity="0.56"/>
<path id="Vector_90" d="M101.656 390H100V443.516H101.953V390.268C101.953 390.087 101.876 390 101.656 390Z" fill="white" fill-opacity="0.56"/>
</g>
<g id="editor">
<path id="Vector_91" d="M79.4453 396.969H43.7031V443.648H79.4453V396.969Z" fill="#32495D"/>
<path id="Vector_92" d="M79.4453 396.969H43.7031V401.852H79.4453V396.969Z" fill="#2B3E51"/>
</g>
<g id="lines">
<g id="DarkenedLines">
<path id="Vector_93" d="M73.3906 408.883H60.1094V410.25H73.3906V408.883Z" fill="#2B3E51"/>
<path id="Vector_94" d="M57.375 412.203H45.0703V413.57H57.375V412.203Z" fill="#2B3E51"/>
<path id="Vector_95" d="M57.375 415.914H45.0703V417.281H57.375V415.914Z" fill="#2B3E51"/>
<path id="Vector_96" d="M71.4375 415.914H59.1328V417.281H71.4375V415.914Z" fill="#2B3E51"/>
<path id="Vector_97" d="M52.4922 420.406H45.0703V421.773H52.4922V420.406Z" fill="#2B3E51"/>
<path id="Vector_98" d="M77.8828 420.406H70.4609V421.773H77.8828V420.406Z" fill="#2B3E51"/>
<path id="Vector_99" d="M65.5781 425.094H45.0703V426.461H65.5781V425.094Z" fill="#2B3E51"/>
<path id="Vector_100" d="M65.5781 405.367H45.0703V406.734H65.5781V405.367Z" fill="#CF6868"/>
<path id="Vector_101" d="M58.3516 408.883H45.0703V410.25H58.3516V408.883Z" fill="#CF6868"/>
<path id="Vector_102" d="M71.4375 412.203H59.1328V413.57H71.4375V412.203Z" fill="#CF6868"/>
<path id="Vector_103" d="M60.8906 420.406H53.4688V421.773H60.8906V420.406Z" fill="#CF6868"/>
<path id="Vector_104" d="M69.4844 420.406H62.0625V421.773H69.4844V420.406Z" fill="#CF6868" fill-opacity="0.85"/>
<path id="Vector_105" d="M73.3906 428.609H60.1094V429.977H73.3906V428.609Z" fill="#2B3E51"/>
<path id="Vector_106" d="M57.375 431.93H45.0703V433.297H57.375V431.93Z" fill="#2B3E51"/>
<path id="Vector_107" d="M52.4922 440.133H45.0703V441.5H52.4922V440.133Z" fill="#2B3E51"/>
<path id="Vector_108" d="M60.8906 440.133H53.4688V441.5H60.8906V440.133Z" fill="#2B3E51"/>
<path id="Vector_109" d="M69.4844 440.133H62.0625V441.5H69.4844V440.133Z" fill="#2B3E51"/>
</g>
<path id="Vector_110" d="M58.3516 428.609H45.0703V429.977H58.3516V428.609Z" fill="#CF6868" fill-opacity="0.85"/>
<path id="Vector_111" d="M71.4375 431.93H59.1328V433.297H71.4375V431.93Z" fill="#CF6868" fill-opacity="0.85"/>
<path id="Vector_112" d="M57.375 435.641H45.0703V437.008H57.375V435.641Z" fill="#CF6868" fill-opacity="0.85"/>
<path id="Vector_113" d="M71.4375 435.641H59.1328V437.008H71.4375V435.641Z" fill="#CF6868" fill-opacity="0.85"/>
<path id="Vector_114" d="M77.8828 440.133H70.4609V441.5H77.8828V440.133Z" fill="#CF6868" fill-opacity="0.85"/>
</g>
<g id="pen">
<path id="Vector_115" d="M85.6953 413.91V411.227H85.7926C85.7881 411.227 85.7881 411.227 85.7881 411.227C85.7881 411.227 85.7881 411.227 85.7926 411.227H85.6953V411.181C83.7422 411.177 83.2848 410.738 83.067 410.561C83.0115 410.516 82.9609 410.488 82.9609 410.488V443.648H85.6953V413.91Z" fill="#CF6868"/>
<path id="Vector_116" d="M88.2953 410.588C88.083 410.769 87.4531 411.031 85.6953 411.031V411.227V413.91V443.648H88.4297V410.488C88.4297 410.488 88.351 410.541 88.2953 410.588Z" fill="#D64B4B"/>
<path id="Vector_117" d="M85.7785 405.476C85.7519 405.427 85.6617 405.466 85.6617 405.466C85.6266 405.466 85.6049 405.464 85.5885 405.463C85.5893 405.466 85.5893 405.47 85.5861 405.476L84.5719 407.32H85.6617H86.8342L85.7785 405.476Z" fill="#32495D"/>
<path id="Vector_118" d="M88.3828 410.247L86.8342 407.32H85.6617H84.5719L83.0178 410.247C82.9797 410.318 82.9561 410.447 82.9832 410.529C83.2092 410.706 83.6357 411.176 85.6617 411.181C85.6617 411.181 85.7006 411.181 85.71 411.181C87.452 411.181 88.1717 410.746 88.3916 410.565C88.4197 410.482 88.4217 410.319 88.3828 410.247Z" fill="#F4C342"/>
</g>
</g>
</g>
<g id="work">
<path id="Work" d="M366.933 76.5934C365.179 73.5562 361.912 71.6693 358.405 71.6693H294.903C291.396 71.6693 288.127 73.5575 286.373 76.5934L254.622 131.593C252.871 134.625 252.871 138.403 254.622 141.436L286.373 196.433C288.127 199.471 291.396 201.359 294.903 201.359H358.405C361.912 201.359 365.179 199.471 366.933 196.433L398.684 141.436C400.439 138.401 400.439 134.623 398.684 131.593L366.933 76.5934Z" fill="#BDC3C7"/>
<g id="xp">
<path id="xP" d="M297.471 154C296.711 154 296.151 153.68 295.791 153.04C295.431 152.4 295.451 151.76 295.851 151.12L303.531 138.52C303.731 138.24 303.731 137.96 303.531 137.68L296.151 125.68C295.751 125.04 295.731 124.4 296.091 123.76C296.451 123.12 297.011 122.8 297.771 122.8H299.691C300.731 122.8 301.691 123.08 302.571 123.64C303.491 124.16 304.191 124.88 304.671 125.8L308.751 133.66C308.751 133.7 308.771 133.72 308.811 133.72C308.851 133.72 308.871 133.7 308.871 133.66L312.951 125.8C313.431 124.88 314.111 124.16 314.991 123.64C315.871 123.08 316.851 122.8 317.931 122.8H319.611C320.371 122.8 320.931 123.12 321.291 123.76C321.651 124.4 321.631 125.04 321.231 125.68L313.851 137.68C313.651 137.96 313.651 138.24 313.851 138.52L321.531 151.12C321.931 151.76 321.951 152.4 321.591 153.04C321.231 153.68 320.671 154 319.911 154H317.991C316.911 154 315.931 153.74 315.051 153.22C314.171 152.66 313.491 151.92 313.011 151L308.631 142.6C308.631 142.56 308.611 142.54 308.571 142.54C308.531 142.54 308.511 142.56 308.511 142.6L304.131 151C303.651 151.92 302.951 152.66 302.031 153.22C301.151 153.74 300.191 154 299.151 154H297.471ZM336.973 117.04V131.5C336.973 131.78 337.133 131.96 337.453 132.04C338.973 132.24 340.453 132.34 341.893 132.34C345.133 132.34 347.593 131.64 349.273 130.24C350.993 128.8 351.853 126.76 351.853 124.12C351.853 118.8 348.533 116.14 341.893 116.14C340.453 116.14 338.973 116.24 337.453 116.44C337.133 116.52 336.973 116.72 336.973 117.04ZM332.053 154C331.133 154 330.333 153.66 329.653 152.98C329.013 152.3 328.693 151.5 328.693 150.58V113.92C328.693 112.96 329.013 112.1 329.653 111.34C330.293 110.58 331.093 110.16 332.053 110.08C335.453 109.76 338.733 109.6 341.893 109.6C347.893 109.6 352.393 110.8 355.393 113.2C358.393 115.56 359.893 119 359.893 123.52C359.893 128.52 358.433 132.3 355.513 134.86C352.633 137.42 348.353 138.7 342.673 138.7C341.353 138.7 339.613 138.62 337.453 138.46C337.133 138.46 336.973 138.62 336.973 138.94V150.58C336.973 151.5 336.633 152.3 335.953 152.98C335.273 153.66 334.473 154 333.553 154H332.053Z" fill="#CF6868"/>
</g>
</g>
<g id="skills">
<path id="Skills" d="M105.098 68.4377H41.5946C38.0886 68.4377 34.819 70.3233 33.066 73.3619L1.31376 128.353C-0.43792 131.392 -0.43792 135.162 1.31376 138.204L33.066 193.196C34.819 196.234 38.0886 198.12 41.5946 198.12H105.098C108.604 198.12 111.871 196.234 113.625 193.196L145.375 138.204C147.128 135.163 147.128 131.392 145.375 128.353L113.625 73.3619C111.871 70.3233 108.604 68.4377 105.098 68.4377Z" fill="#BDC3C7"/>
<g id="cogs">
<g id="cogs_2">
<path id="Vector_119" d="M88.1719 129.484C87.7812 127.797 87.1094 126.203 86.2031 124.766L89.7344 120.578L85.4219 116.266L81.2344 119.797C79.7969 118.891 78.2031 118.219 76.5156 117.828L76.0469 112.375H69.9531L69.5 117.828C67.7969 118.219 66.2031 118.891 64.7812 119.797L60.5937 116.266L56.2969 120.578L59.8125 124.766C58.9062 126.203 58.2344 127.797 57.8437 129.484L52.3906 129.953V136.047L57.8437 136.5C58.2344 138.203 58.9062 139.797 59.8125 141.219L56.2969 145.406L60.5937 149.703L64.7812 146.172C66.2187 147.078 67.7969 147.75 69.5 148.141L69.9531 153.578H76.0469L76.5156 148.141C78.2031 147.75 79.7969 147.078 81.2344 146.172L85.4219 149.703L89.7344 145.406L86.2031 141.219C87.1094 139.781 87.7812 138.203 88.1719 136.5L93.625 136.047V129.953L88.1719 129.484ZM73 140.516C68.8437 140.516 65.4844 137.156 65.4844 133C65.4844 128.859 68.8437 125.5 73 125.5C77.1406 125.5 80.5 128.859 80.5 133C80.5 137.156 77.1406 140.516 73 140.516Z" fill="#CF6868"/>
<path id="Vector_120" d="M73 100.969C55.2969 100.969 40.9688 115.313 40.9688 133C40.9688 150.703 55.2969 165.031 73 165.031C90.6875 165.031 105.031 150.703 105.031 133C105.031 115.313 90.6875 100.969 73 100.969ZM73 160.25C57.9375 160.25 45.75 148.047 45.75 133C45.75 117.953 57.9531 105.75 73 105.75C88.0469 105.75 100.25 117.953 100.25 133C100.25 148.047 88.0469 160.25 73 160.25Z" fill="white"/>
</g>
</g>
</g>
<g id="formation">
<path id="Formation" d="M105.098 218.339H41.5946C38.0886 218.339 34.819 220.229 33.066 223.263L1.31376 278.263C-0.43792 281.297 -0.43792 285.072 1.31376 288.108L33.066 343.105C34.819 346.142 38.0886 348.029 41.5946 348.029H105.098C108.604 348.029 111.871 346.141 113.625 343.105L145.375 288.108C147.128 285.071 147.128 281.296 145.375 278.263L113.625 223.263C111.871 220.23 108.604 218.339 105.098 218.339Z" fill="#BDC3C7"/>
<g id="school">
<path id="Vector_121" d="M41.1146 288.25V299.958C41.1146 303 42.7813 305.833 45.4479 307.292L66.2813 318.667C68.7813 320.042 71.7813 320.042 74.2813 318.667L95.1146 307.292C97.7813 305.833 99.4479 303 99.4479 299.958V288.25L74.2813 302C71.7813 303.375 68.7813 303.375 66.2813 302L41.1146 288.25ZM66.2813 248L31.1563 267.167C28.2812 268.75 28.2812 272.917 31.1563 274.5L66.2813 293.667C68.7813 295.042 71.7813 295.042 74.2813 293.667L107.781 275.375V300C107.781 302.292 109.656 304.167 111.948 304.167C114.24 304.167 116.115 302.292 116.115 300V273.292C116.115 271.75 115.281 270.375 113.948 269.625L74.2813 248C71.7813 246.667 68.7813 246.667 66.2813 248V248Z" fill="#CF6868"/>
</g>
</g>
<g id="hobbies">
<path id="Hobbies" d="M273.518 494.553L241.767 439.562C240.014 436.523 236.746 434.638 233.24 434.638H169.735C166.228 434.638 162.96 436.523 161.205 439.562L129.455 494.553C127.703 497.593 127.703 501.366 129.455 504.402L161.205 559.396C162.96 562.433 166.228 564.32 169.735 564.32H233.238C236.744 564.32 240.013 562.432 241.766 559.396L273.518 504.402C275.271 501.366 275.271 497.593 273.518 494.553Z" fill="#BDC3C7"/>
<circle id="circle" cx="203" cy="499" r="47.5" stroke="white" stroke-width="5"/>
<path id="Vector_122" d="M204.158 534.771C204.11 534.771 204.056 534.769 204.008 534.769C201.915 534.702 200.13 533.233 199.659 531.194L189.204 485.888L183.078 501.813C182.394 503.594 180.68 504.769 178.771 504.769H162.615C160.066 504.769 158 502.703 158 500.154C158 497.606 160.066 495.539 162.615 495.539H175.598L186.002 468.497C186.73 466.603 188.589 465.41 190.632 465.548C192.656 465.689 194.349 467.139 194.807 469.115L204.738 512.151L213.581 482.673C214.109 480.906 215.645 479.624 217.478 479.414C219.303 479.209 221.095 480.103 222.007 481.708L229.91 495.538H243.385C245.934 495.538 248 497.604 248 500.153C248 502.701 245.934 504.767 243.385 504.767H227.231C225.574 504.767 224.04 503.881 223.221 502.443L219.328 495.628L208.573 531.479C207.987 533.436 206.187 534.771 204.158 534.771Z" fill="#CF6868"/>
</g>
</g>
<defs>
<clipPath id="clip0">
<rect width="400" height="565" fill="white"/>
</clipPath>
</defs>
</svg>
