<svg width="100" height="101" viewBox="0 0 100 101" fill="none" xmlns="http://www.w3.org/2000/svg">
<circle cx="50" cy="50" r="50" fill="#E76060"/>
<path d="M59.322 72.8814V65.8596C63.8818 65.1422 66.1913 64.4044 69.8547 62.4697V75.908C68.2757 74.1386 67.3041 73.3089 65.0121 72.8814C62.7201 72.4538 59.322 72.8814 59.322 72.8814Z" fill="#F4B366" stroke="#F4B366"/>
<path d="M25.7869 77.6029V21.4286C27.1938 16.2509 28.705 13.7528 33.1719 10.2906C35.6607 7.57987 36.7727 6.7771 38.6199 5.69007C50.5775 1.57827 57.388 1.34304 69.8547 7.14285C75.6094 13.5985 76.947 17.797 76.5133 26.1501C62.3704 29.53 54.2897 29.0899 39.5884 23.8499C41.1069 32.261 41.1657 36.7524 37.5303 43.7046C36.367 42.1219 35.8715 41.2318 31.3559 39.7094C25.7869 41.7676 27.6029 49.6368 33.1719 54.2373C33.1719 60.1695 38.6199 58.5956 38.6199 54.2373C41.5572 59.084 43.2979 61.2715 46.7312 63.3172V71.5496C38.7732 71.4252 35.0689 73.0649 29.1768 77.6029H25.7869Z" fill="#F4B366" stroke="#F4B366"/>
<path d="M70.2759 62.954C74.8278 59.945 76.2221 54.2425 73.7868 26.9976C59.5888 29.9316 52.1994 29.1899 40.0095 23.7288C41.0222 32.477 41.1008 37.157 37.5882 43.8257C35.2957 41.7892 33.8956 40.9804 31.1717 40.1937C26.2081 43.8257 27.6609 48.7893 32.5035 53.3898C35.4361 50.7423 36.5659 52.2894 38.6778 54.4794C41.9185 59.4198 43.7228 61.6232 46.9102 64.1646V72.0339C46.8467 74.4954 47.738 75.5844 53.3267 76.2712C56.4138 75.6551 57.9716 75.1517 59.38 73.0024V65.8596C64.4615 64.6411 66.7312 64.0167 70.2759 62.954Z" fill="#FAE2E2" stroke="#FAE2E2"/>
<path d="M65.8596 30.4843C65.4964 30.5811 65.23 30.8475 65.1816 31.1864C65.109 31.7191 65.1332 31.7191 67.1187 31.5739C68.523 31.477 69.4431 31.5496 70.2179 31.7918C71.5012 32.1792 71.9128 32.1065 71.9128 31.477C71.9128 30.5811 67.8693 29.9274 65.8596 30.4843Z" fill="#413F47"/>
<path d="M47.9903 33.6804C46.6344 33.9467 44.6005 34.891 43.8741 35.5932C43.3656 36.0775 43.3414 36.1743 43.6562 36.5133C43.9952 36.8281 44.1647 36.8039 45.2058 36.1259C46.247 35.4479 47.1187 35.1574 49.2252 34.7458C49.7579 34.6247 49.9032 34.5036 49.8305 34.0678C49.7337 33.4625 49.4189 33.3898 47.9903 33.6804Z" fill="#413F47"/>
<path d="M69.5523 34.3116C69.2972 34.3075 69.0024 34.3045 68.6638 34.3014L68.6638 34.3015L68.6569 34.3013C68.1435 34.2897 67.7198 34.3135 67.3962 34.3624C67.0562 34.4139 66.8831 34.4851 66.8221 34.5273C66.2315 34.9362 65.8836 35.8214 65.9145 36.8955C65.9449 37.9539 66.345 39.0519 67.0606 39.7675C67.5161 40.223 67.7952 40.3593 67.9941 40.3766C68.1761 40.3923 68.4252 40.3181 68.8542 39.9569C69.1492 39.7073 69.2219 39.6065 69.2707 39.4341C69.3384 39.195 69.3547 38.815 69.3547 37.9661C69.3547 37.497 69.3312 36.9963 69.2959 36.5697C69.2606 36.1436 69.2164 35.8274 69.1812 35.6865C69.0915 35.4161 68.9754 35.0256 69.2116 34.6534C69.3023 34.5105 69.4264 34.4011 69.5523 34.3116Z" fill="#413F47" stroke="#413F47"/>
<path d="M58.1114 36.0048C57.7482 36.1743 57.6513 36.3196 57.8935 36.3196C58.1356 36.3196 58.4988 37.046 59.0073 38.6683C59.4431 39.9758 59.8547 41.2591 59.9516 41.5012C60.0726 41.8402 60.0484 41.9128 59.8547 41.7918C59.6852 41.6949 59.5642 41.7433 59.5642 41.8644C59.5642 42.0097 59.7337 42.1307 59.9274 42.1307C60.1211 42.1307 60.3148 42.3002 60.339 42.4939C60.339 42.6877 60.3632 43.0024 60.3874 43.1477C60.4358 43.6562 60.8232 43.8015 61.4286 43.5593C61.7191 43.4383 61.9855 43.414 61.9855 43.4867C61.9855 43.5835 62.155 43.5109 62.3487 43.3414C62.8814 42.9056 63.8741 43.6077 63.8741 44.4068C63.8741 44.9637 63.1235 45.9322 62.7361 45.8596C62.5908 45.8354 62.4213 45.8596 61.5981 46.1259C61.2349 46.247 61.1864 47.2397 61.5739 47.2155C61.6707 47.2155 62.1065 47.2155 62.5424 47.2155C63.1477 47.2155 63.6078 46.9734 64.3584 46.2954C65.2785 45.4237 65.3511 45.3027 65.2058 44.4068C65.1332 43.8983 64.9637 43.3172 64.8184 43.1477C64.6005 42.8814 64.7458 42.7603 65.2058 42.8329C65.3027 42.8329 65.3753 42.7845 65.3753 42.6634C65.3753 42.3971 62.2276 41.6707 62.0823 41.9128C61.816 42.3487 61.5254 42.1065 61.1622 41.0896C60.9443 40.5327 60.7264 39.8547 60.7022 39.5884C60.6538 39.322 60.4843 38.8136 60.339 38.4746C60.1937 38.1114 59.9758 37.385 59.8305 36.8523C59.54 35.7627 59.0315 35.5206 58.1114 36.0048Z" fill="#EBC9B6"/>
<path d="M48.9579 37.8953L48.958 37.8954L48.9489 37.9024C48.7414 38.062 48.4535 38.2089 48.1724 38.3252C47.8861 38.4437 47.57 38.5455 47.2893 38.6017L47.2793 38.6037L47.2693 38.6053C47.2489 38.6085 47.2279 38.6122 47.2065 38.6163C47.3621 38.6617 47.5094 38.7248 47.6415 38.8145C48.1122 39.1339 48.1998 39.6466 48.1998 40.1453C48.1998 40.5515 48.3121 41.2995 48.4668 41.7854L48.4668 41.7854L48.4692 41.7934C48.5824 42.1706 48.9287 42.6963 49.3537 43.1413C49.561 43.3583 49.7696 43.5376 49.9521 43.6587C50.0431 43.719 50.1199 43.7598 50.1803 43.7842C50.2355 43.8066 50.2627 43.8095 50.2662 43.8099C50.2668 43.8099 50.2668 43.8099 50.2663 43.8099C50.6661 43.8099 50.9948 43.6139 51.2559 43.2293C51.5254 42.8322 51.7041 42.2521 51.75 41.5821C51.843 40.2232 51.3813 38.7306 50.4171 37.9716L50.4171 37.9716L50.4154 37.9702C50.0266 37.6615 49.7992 37.5758 49.6393 37.5699C49.4931 37.5644 49.2963 37.6224 48.9579 37.8953Z" fill="#413F47" stroke="#413F47"/>
<path d="M64.2857 53.6804C63.6562 53.8983 62.6877 53.9952 61.5739 53.9467C59.9031 53.8741 59.8063 53.8983 59.9516 54.3584C60.5085 56.3196 62.615 57.2155 64.431 56.2712C65.1816 55.908 65.8596 54.6731 65.8596 53.753C65.8596 53.1961 65.6416 53.1961 64.2857 53.6804Z" fill="#EBC9B6"/>
<path d="M38.2409 54.9637C38.2409 56.7095 36.8771 58.0956 35.23 58.0956C33.583 58.0956 32.2191 56.7095 32.2191 54.9637C32.2191 53.2178 33.583 51.8317 35.23 51.8317C36.8771 51.8317 38.2409 53.2178 38.2409 54.9637Z" fill="#F04444" stroke="#F04444"/>
<path d="M29.54 77.6029C35.1624 73.084 38.9225 71.829 46.7312 71.9128C46.7312 77.6029 55.2062 77.8816 59.322 72.8814C64.9979 72.4594 67.7855 72.7341 70.2179 76.5133C75.0516 83.3971 75.4034 87.0065 75.0605 93.3414C63.4829 98.9641 58.9068 99.6238 51.4528 99.8789C40.91 99.6913 34.7928 98.8586 22.155 91.2833C22.5905 86.9679 24.92 83.6736 29.54 77.6029Z" fill="#A2ADD7" stroke="#A2ADD7"/>
</svg>
