<svg width="413" height="413" viewBox="0 0 413 413" fill="none" xmlns="http://www.w3.org/2000/svg">
<circle cx="206.5" cy="206.5" r="206.5" fill="#E76060"/>
<path d="M245 301V272C263.832 269.037 273.37 265.99 288.5 258V313.5C281.979 306.192 277.966 302.766 268.5 301C259.034 299.234 245 301 245 301Z" fill="#F4B366" stroke="#F4B366"/>
<path d="M106.5 320.5V88.5C112.311 67.116 118.552 56.7992 137 42.5C147.279 31.3049 151.871 27.9894 159.5 23.5C208.885 6.51827 237.013 5.54677 288.5 29.5C312.267 56.1618 317.791 73.5016 316 108C257.59 121.959 224.217 120.141 163.5 98.5C169.772 133.238 170.014 151.787 155 180.5C150.196 173.964 148.149 170.287 129.5 164C106.5 172.5 114 205 137 224C137 248.5 159.5 242 159.5 224C171.631 244.017 178.82 253.051 193 261.5V295.5C160.133 294.986 144.834 301.758 120.5 320.5H106.5Z" fill="#F4B366" stroke="#F4B366"/>
<path d="M290.239 260C309.039 247.573 314.797 224.022 304.739 111.5C246.102 123.618 215.583 120.554 165.239 98C169.422 134.13 169.746 153.458 155.239 181C145.771 172.59 139.989 169.249 128.739 166C108.239 181 114.239 201.5 134.239 220.5C146.351 209.566 151.017 215.955 159.739 225C173.123 245.404 180.575 254.504 193.739 265V297.5C193.477 307.666 197.158 312.164 220.239 315C232.989 312.456 239.423 310.376 245.239 301.5V272C266.226 266.968 275.6 264.389 290.239 260Z" fill="#FAE2E2" stroke="#FAE2E2"/>
<path d="M272 125.9C270.5 126.3 269.4 127.4 269.2 128.8C268.9 131 269 131 277.2 130.4C283 130 286.8 130.3 290 131.3C295.3 132.9 297 132.6 297 130C297 126.3 280.3 123.6 272 125.9Z" fill="#413F47"/>
<path d="M198.2 139.1C192.6 140.2 184.2 144.1 181.2 147C179.1 149 179 149.4 180.3 150.8C181.7 152.1 182.4 152 186.7 149.2C191 146.4 194.6 145.2 203.3 143.5C205.5 143 206.1 142.5 205.8 140.7C205.4 138.2 204.1 137.9 198.2 139.1Z" fill="#413F47"/>
<path d="M283.596 140.1V140.1L283.589 140.1C281.408 140.05 279.563 140.15 278.112 140.369C276.645 140.591 275.638 140.928 275.085 141.311C272.031 143.425 270.527 147.721 270.662 152.423C270.797 157.11 272.561 162.054 275.854 165.346C277.787 167.28 279.279 168.193 280.681 168.314C282.066 168.434 283.509 167.792 285.378 166.218C286.658 165.135 287.261 164.465 287.594 163.289C287.946 162.046 288 160.226 288 156.8C288 154.815 287.901 152.704 287.752 150.904C287.603 149.103 287.407 147.651 287.221 146.943C286.83 145.77 286.614 144.826 287.165 143.957C287.427 143.545 287.835 143.192 288.365 142.84C288.898 142.486 289.593 142.107 290.468 141.657C291.474 141.119 292.174 140.728 292.556 140.44C292.378 140.399 292.132 140.36 291.806 140.326C291.338 140.276 290.734 140.239 289.977 140.209C288.464 140.15 286.372 140.125 283.596 140.1ZM292.794 140.221C292.793 140.222 292.793 140.222 292.792 140.224C292.793 140.222 292.794 140.221 292.794 140.221Z" fill="#413F47" stroke="#413F47"/>
<path d="M240 148.7C238.5 149.4 238.1 150 239.1 150C240.1 150 241.6 153 243.7 159.7C245.5 165.1 247.2 170.4 247.6 171.4C248.1 172.8 248 173.1 247.2 172.6C246.5 172.2 246 172.4 246 172.9C246 173.5 246.7 174 247.5 174C248.3 174 249.1 174.7 249.2 175.5C249.2 176.3 249.3 177.6 249.4 178.2C249.6 180.3 251.2 180.9 253.7 179.9C254.9 179.4 256 179.3 256 179.6C256 180 256.7 179.7 257.5 179C259.7 177.2 263.8 180.1 263.8 183.4C263.8 185.7 260.7 189.7 259.1 189.4C258.5 189.3 257.8 189.4 254.4 190.5C252.9 191 252.7 195.1 254.3 195C254.7 195 256.5 195 258.3 195C260.8 195 262.7 194 265.8 191.2C269.6 187.6 269.9 187.1 269.3 183.4C269 181.3 268.3 178.9 267.7 178.2C266.8 177.1 267.4 176.6 269.3 176.9C269.7 176.9 270 176.7 270 176.2C270 175.1 257 172.1 256.4 173.1C255.3 174.9 254.1 173.9 252.6 169.7C251.7 167.4 250.8 164.6 250.7 163.5C250.5 162.4 249.8 160.3 249.2 158.9C248.6 157.4 247.7 154.4 247.1 152.2C245.9 147.7 243.8 146.7 240 148.7Z" fill="#EBC9B6"/>
<path d="M201.214 155.289L201.214 155.289L201.205 155.296C200.505 155.835 199.459 156.38 198.354 156.837C197.243 157.297 196.037 157.683 194.998 157.89L194.988 157.892L194.978 157.894C194.073 158.037 193.008 158.35 192.031 158.729C191.052 159.108 190.201 159.537 189.7 159.9C189.414 160.123 189.183 160.303 189.002 160.451C189.262 160.469 189.595 160.483 190.015 160.5C191.421 160.525 192.586 160.601 193.541 160.765C194.495 160.929 195.273 161.187 195.881 161.599C197.147 162.458 197.5 163.861 197.5 165.8C197.5 167.646 197.991 170.895 198.676 173.048L198.677 173.048L198.679 173.056C199.247 174.949 200.863 177.332 202.699 179.255C203.612 180.211 204.562 181.034 205.437 181.615C206.331 182.207 207.077 182.5 207.6 182.5C209.875 182.5 211.677 181.338 212.982 179.416C214.294 177.482 215.086 174.794 215.289 171.841C215.694 165.916 213.717 159.156 209.191 155.593L209.189 155.592C207.512 154.26 206.242 153.644 205.069 153.6C203.909 153.556 202.727 154.069 201.214 155.289ZM188.582 160.841C188.582 160.841 188.583 160.839 188.585 160.837C188.583 160.839 188.582 160.841 188.582 160.841ZM188.44 160.377C188.434 160.374 188.431 160.372 188.431 160.373C188.43 160.373 188.433 160.374 188.44 160.377Z" fill="#413F47" stroke="#413F47"/>
<path d="M265.5 221.7C262.9 222.6 258.9 223 254.3 222.8C247.4 222.5 247 222.6 247.6 224.5C249.9 232.6 258.6 236.3 266.1 232.4C269.2 230.9 272 225.8 272 222C272 219.7 271.1 219.7 265.5 221.7Z" fill="#EBC9B6"/>
<path d="M159.5 227C159.5 235.024 153.216 241.5 145.5 241.5C137.784 241.5 131.5 235.024 131.5 227C131.5 218.976 137.784 212.5 145.5 212.5C153.216 212.5 159.5 218.976 159.5 227Z" fill="#F04444" stroke="#F04444"/>
<path d="M122 320.5C145.221 301.837 160.75 296.654 193 297C193 320.5 228.002 321.651 245 301C268.441 299.257 279.954 300.392 290 316C309.963 344.43 311.416 359.337 310 385.5C262.184 408.722 243.285 411.446 212.5 412.5C168.958 411.725 143.694 408.286 91.5 377C93.2987 359.177 102.919 345.572 122 320.5Z" fill="#A2ADD7" stroke="#A2ADD7"/>
</svg>
